<svg xmlns="http://www.w3.org/2000/svg" width="268.734" height="65" viewBox="0 0 268.734 65"><defs><style>.a,.b{fill:#1579bd;}.b,.c{fill-rule:evenodd;}.c,.d{fill:#12b698;}</style></defs><path class="a" d="M66.238,148.017c1.209-2.592,2.183-4.721,2.9-6.4q2.263-5.237,5.156-12.186,1.9-4.6,3.542-8.818c1.092-2.824,2.125-5.558,3.089-8.222q3.252.054,5.31.054c1.855,0,3.612-.018,5.278-.054l-2.83,6.315c-.465,1.042-1.372,3.163-2.708,6.342.827-.731,1.493-1.277,1.979-1.63a15.914,15.914,0,0,1,1.554-.989,13.383,13.383,0,0,1,1.626-.775,13.135,13.135,0,0,1,1.763-.543,16.013,16.013,0,0,1,2.093-.365,19.058,19.058,0,0,1,2.256-.134,15.887,15.887,0,0,1,4.059.5,5.342,5.342,0,0,1,2.866,1.728,4.179,4.179,0,0,1,.95,2.77,10.827,10.827,0,0,1-.693,3.349c-.168.468-.409,1.1-.712,1.871s-.722,1.754-1.227,2.93l-3.756,8.8c-.467,1.1-.831,2-1.1,2.726s-.6,1.63-.995,2.726c-1.782-.036-3.481-.054-5.108-.054q-2.757,0-5.613.054,1.692-3.474,3.668-8t2.765-6.743q.889-2.458.236-3.447a2.6,2.6,0,0,0-2.334-.989,6.885,6.885,0,0,0-2.881.623,8.486,8.486,0,0,0-2.419,1.7,13.124,13.124,0,0,0-2.117,2.787,58.049,58.049,0,0,0-3.169,6.547q-1.029,2.4-3.019,7.518c-1.729-.036-3.34-.054-4.852-.054q-2.3,0-5.56.054ZM127.526,120.7a16.167,16.167,0,0,1,5.79.988,8.5,8.5,0,0,1,3.952,2.86,7.6,7.6,0,0,1,1.424,4.356,14.82,14.82,0,0,1-.973,5.362,22.475,22.475,0,0,1-2.783,5.309,22.036,22.036,0,0,1-4.637,4.721,20.068,20.068,0,0,1-6.437,3.3,24.236,24.236,0,0,1-7.133,1.1,17.427,17.427,0,0,1-5.94-.962,8.376,8.376,0,0,1-4.017-2.824,7.707,7.707,0,0,1-1.43-4.436,14.616,14.616,0,0,1,.944-5.425,20.967,20.967,0,0,1,2.956-5.425,21.486,21.486,0,0,1,4.822-4.65,22.677,22.677,0,0,1,6.467-3.171,23.594,23.594,0,0,1,7-1.1Zm-2.95,7.669a6.723,6.723,0,0,0-3.25.864,8.723,8.723,0,0,0-2.852,2.512,13.583,13.583,0,0,0-1.968,3.616c-.693,1.915-.747,3.376-.176,4.4a3.158,3.158,0,0,0,3,1.523,6.709,6.709,0,0,0,3.227-.873,8.9,8.9,0,0,0,2.878-2.583,14.053,14.053,0,0,0,1.988-3.67,7.98,7.98,0,0,0,.537-2.921,2.784,2.784,0,0,0-.926-2.085,3.578,3.578,0,0,0-2.46-.784Zm12.064,19.65,5.272-12.578,3.971-9.834,1.584-4.23c1.878.036,3.533.053,4.976.053,1.636,0,3.225-.018,4.786-.053l-1.442,3.474c.788-.7,1.43-1.229,1.935-1.6a12.453,12.453,0,0,1,1.74-1.069,11.188,11.188,0,0,1,1.939-.811,15.236,15.236,0,0,1,4.366-.667,10.971,10.971,0,0,1,2.347.223,6.591,6.591,0,0,1,1.7.561,4.079,4.079,0,0,1,1.114.784,3.325,3.325,0,0,1,.673,1.007,7.538,7.538,0,0,1,.457,1.63,16.313,16.313,0,0,1,3.311-2.539A13.389,13.389,0,0,1,178.7,121.1a15.461,15.461,0,0,1,3.452-.4,11.366,11.366,0,0,1,3.994.65,4.111,4.111,0,0,1,2.436,2.262,5.661,5.661,0,0,1-.23,4.16q-.43,1.2-1.479,3.626t-3.482,8.337q-2.428,5.906-3.314,8.284-2.356-.053-4.572-.054c-1.8,0-3.692.018-5.684.054q1.462-3.314,3.534-8.311t2.78-6.929a6.469,6.469,0,0,0,.525-2.521,1.4,1.4,0,0,0-.581-1.14,2.293,2.293,0,0,0-1.218-.3,3.707,3.707,0,0,0-1.44.285,5.105,5.105,0,0,0-1.436.98,11.557,11.557,0,0,0-1.792,2.182,22.746,22.746,0,0,0-1.623,3.127c-.639,1.426-1.407,3.305-2.321,5.639l-2.732,6.992q-2.738-.053-4.959-.054c-1.5,0-3.3.018-5.349.054.71-1.549,1.839-4.155,3.36-7.8s2.516-6.1,2.96-7.331a7.281,7.281,0,0,0,.543-2.351,2.006,2.006,0,0,0-.411-1.247,1.606,1.606,0,0,0-1.307-.472,3.679,3.679,0,0,0-1.966.6,8.243,8.243,0,0,0-1.9,1.728,14.878,14.878,0,0,0-1.858,3.091q-.935,1.964-2.579,6.013T147,148.019c-2.063-.036-3.745-.054-5.029-.054-1.425,0-3.208.018-5.331.054Zm77.466-7.883q-.9,1.563-4.023,7.571c-2.141.4-3.906.659-5.309.793s-2.806.2-4.2.2a31.861,31.861,0,0,1-5.492-.427,9.259,9.259,0,0,1-3.887-1.532,6.4,6.4,0,0,1-2.144-2.726,8.534,8.534,0,0,1-.515-3.874,17.015,17.015,0,0,1,1.01-4.614,24.237,24.237,0,0,1,3.676-6.539,22.069,22.069,0,0,1,5.2-5,18.574,18.574,0,0,1,5.7-2.556,23.581,23.581,0,0,1,5.814-.757,19.3,19.3,0,0,1,5.351.695,6.426,6.426,0,0,1,3.646,2.414,6.532,6.532,0,0,1,1.243,3.883,13.965,13.965,0,0,1-.909,4.676,24.77,24.77,0,0,1-1.533,3.314l-18.075.027c-.117.276-.219.531-.3.757-.672,1.868-.516,3.252.489,4.142a6.4,6.4,0,0,0,4.356,1.328,24.129,24.129,0,0,0,4.024-.4q2.326-.415,5.87-1.372Zm-12.793-8.444h8.5c.123-.294.227-.552.3-.757a5.039,5.039,0,0,0,.366-2.325,1.817,1.817,0,0,0-.863-1.408,3.491,3.491,0,0,0-1.835-.445,5.248,5.248,0,0,0-1.576.249,6.179,6.179,0,0,0-1.565.731,7.826,7.826,0,0,0-1.367,1.1,9.173,9.173,0,0,0-1.013,1.22c-.255.392-.576.935-.95,1.63Zm20.517,16.328q2.3-5.011,8.119-19.16l4.145-9.05c.71-1.549,1.114-2.86,1.606-3.759a9.187,9.187,0,0,1,1.732-2.307,10.474,10.474,0,0,1,2.472-1.7,10.6,10.6,0,0,1,3.073-1.007,20.528,20.528,0,0,1,3.225-.258,26.573,26.573,0,0,1,3.166.2,23.333,23.333,0,0,1,3.853.846c-.946,2.762-1.672,5.059-2.157,6.886a10.87,10.87,0,0,0-4.252-.935c-.923,0-2.094-.1-2.408.651l-4.384,10.439-7.785,19.16q-3.042-.053-5.232-.054c-1.478,0-3.2.018-5.173.054Zm19.6,0c1-2.12,1.823-3.874,2.443-5.246s1.359-3.127,2.25-5.273,1.839-4.5,2.865-7.091,2.176-5.6,3.469-9.032q3.331.053,5.337.053,1.834,0,5.278-.053-2.219,4.93-3.77,8.667c-1.022,2.485-2.063,5.122-3.1,7.9q-2.775,7.416-3.741,10.074c-2.037-.036-3.789-.054-5.266-.054-1.46,0-3.375.018-5.762.054Zm16.595,0,4.993-11.589,2.663-6.654q.674-1.79,1.357-3.679c.458-1.264,1.011-2.841,1.655-4.721,2.063.036,3.709.053,4.923.053,1.425,0,3.076-.018,4.944-.053l-1.172,2.948c.946-.766,1.7-1.336,2.264-1.71a13.945,13.945,0,0,1,1.836-1.015,9.719,9.719,0,0,1,1.977-.677,8.628,8.628,0,0,1,1.963-.223,8.328,8.328,0,0,1,1.964.258q-1,2.846-1.57,4.7l-1.277,4.017a8,8,0,0,0-2.5-.419,8.361,8.361,0,0,0-2.829.455,9.059,9.059,0,0,0-2.488,1.381,11.6,11.6,0,0,0-2.209,2.316,23.158,23.158,0,0,0-2.306,4.382q-1.294,2.993-2.693,6.859-.492,1.362-1.112,3.367c-1.658-.036-3.323-.054-5-.054s-3.463.018-5.384.054Zm22.669-.5c.207-.767.427-1.568.671-2.414s.54-2,.917-3.483l.478-1.879a29.2,29.2,0,0,0,3.766,1.478,11.161,11.161,0,0,0,3.159.481,8.614,8.614,0,0,0,2.133-.232,3.509,3.509,0,0,0,1.391-.686,2.247,2.247,0,0,0,.69-.909,1.236,1.236,0,0,0,.024-.819,3.176,3.176,0,0,0-.82-1.114q-1.545-1.563-2.692-2.841a9.572,9.572,0,0,1-1.605-2.272,5.217,5.217,0,0,1-.466-2.137,6.861,6.861,0,0,1,.438-2.379,10.889,10.889,0,0,1,2.686-4.044,11.364,11.364,0,0,1,4.591-2.726,20.484,20.484,0,0,1,6.12-.847,51.475,51.475,0,0,1,8.808.935l-2.242,7.339a12.864,12.864,0,0,0-5.552-1.255,8.911,8.911,0,0,0-3.1.419,2.2,2.2,0,0,0-1.376,1.274,1.456,1.456,0,0,0-.094.552,1.229,1.229,0,0,0,.173.543,2.957,2.957,0,0,0,.455.588c.2.2.674.668,1.447,1.4s1.358,1.327,1.768,1.8a7.845,7.845,0,0,1,1.437,2.128,5.54,5.54,0,0,1,.406,2.085,6.971,6.971,0,0,1-.448,2.333,10,10,0,0,1-2.123,3.412,12.05,12.05,0,0,1-3.621,2.592,17.5,17.5,0,0,1-4.4,1.452,25.051,25.051,0,0,1-4.446.4,32.315,32.315,0,0,1-3.662-.258,45.918,45.918,0,0,1-4.91-.917Zm47.447-7.171q-1.255,2.192-2.347,4.276l-1.713,3.179c-1.836.383-3.254.632-4.249.73a26.138,26.138,0,0,1-2.828.16,16.348,16.348,0,0,1-3.752-.374,4.044,4.044,0,0,1-2.329-1.39,3.385,3.385,0,0,1-.713-2.307,9.476,9.476,0,0,1,.586-2.762c.064-.178.186-.49.361-.926s.6-1.434,1.249-2.966l3.837-9.023h-4.019c.523-1.2,1.175-2.788,1.946-4.748l.958-2.432H319.4q.6-1.2,2.286-5.246l4.735-.908q1.3-.241,5.589-1.2c-.947,2.28-1.913,4.73-2.917,7.357h5.874q-2.173,5.425-2.8,7.18h-5.928l-2.667,6.52c-.387.971-.633,1.6-.734,1.88a7.35,7.35,0,0,0-.49,2.085,1.268,1.268,0,0,0,.524,1.2,2.469,2.469,0,0,0,1.372.365,10.091,10.091,0,0,0,1.325-.089c.462-.062,1.322-.249,2.569-.561Z" transform="translate(-66.238 -97.263)"/><path class="b" d="M201.011,123.464l-2.8,6.836,19.517.087,2.624-6.923Z" transform="translate(-41.034 -94.563)"/><path class="c" d="M225.672,111.9c3.687,2.7,10.7-2.836,15.628,0-.652,2.08-1.48,4.778-2.131,6.858-4.448-2.905-10.626,2.767-15.628,0,.651-2.08,1.48-4.778,2.131-6.858Z" transform="translate(-36.26 -96.931)"/><path class="c" d="M216.287,104.379c3.131,2.291,9.083-2.408,13.271,0-.553,1.766-1.257,4.058-1.809,5.823-3.778-2.467-9.024,2.349-13.271,0,.553-1.766,1.256-4.058,1.809-5.823Z" transform="translate(-38.022 -98.459)"/><path class="c" d="M208.038,99.8c2.624,1.92,7.612-2.018,11.122,0-.464,1.48-1.053,3.4-1.516,4.88-3.166-2.068-7.563,1.969-11.122,0C206.985,103.2,207.575,101.283,208.038,99.8Z" transform="translate(-39.566 -99.21)"/><path class="d" d="M197.525,152.7l-.032-.981c-.009-.233-.025-.555-.052-.972l-.267-3.988-.112-1.346c.447.008.808.011,1.087.011.311,0,.676,0,1.089-.011.009.581.022,1,.037,1.276l.124,2.15q.035.694.054,1.693l.29-.748,1.007-2.466.726-1.906c.487.008.9.011,1.237.011q.549,0,1.233-.011l0,2.247.035,2.862.326-.785c.06-.135.122-.273.184-.411s.2-.415.392-.826l.959-2.05.46-1.036q.643.005,1.064.006.472,0,1.06-.006l-3,6.2-.494,1.083c-.532-.008-1-.011-1.4-.011-.42,0-.883,0-1.394.011l-.011-.732-.084-2.545c0-.153,0-.311,0-.473s.017-.414.032-.756l-.313.828c-.073.186-.151.372-.228.561L200.2,152.7q-.8-.011-1.336-.011c-.377,0-.823,0-1.342.011Zm15.9-1.606q-.117.319-.494,1.54-.64.126-1.068.166c-.286.027-.572.042-.862.042a7.071,7.071,0,0,1-1.158-.087,2.357,2.357,0,0,1-.876-.313,1.77,1.77,0,0,1-.566-.555,2.007,2.007,0,0,1-.279-.792,3.18,3.18,0,0,1,.006-.943,3.837,3.837,0,0,1,.475-1.336,3.276,3.276,0,0,1,.855-1.02,3.034,3.034,0,0,1,1.069-.523,4.544,4.544,0,0,1,1.172-.155,4.385,4.385,0,0,1,1.138.142,1.781,1.781,0,0,1,.863.492,1.656,1.656,0,0,1,.428.793,2.66,2.66,0,0,1,.018.954,4.284,4.284,0,0,1-.167.677l-3.753.006c-.012.056-.022.107-.029.155a.816.816,0,0,0,.285.847,1.6,1.6,0,0,0,.966.271,4.791,4.791,0,0,0,.819-.082c.308-.054.7-.148,1.158-.278Zm-3.035-1.726h1.766c.013-.06.022-.111.029-.155a1,1,0,0,0-.027-.474.5.5,0,0,0-.241-.285.849.849,0,0,0-.4-.091,1.007,1.007,0,0,0-.317.051,1.024,1.024,0,0,0-.294.149,1.129,1.129,0,0,0-.234.226,1.348,1.348,0,0,0-.155.246C210.481,149.114,210.438,149.225,210.392,149.367Zm7.308-3.949-.9,1.174q-.167.224-.663.907l-.5-.011c-.051,0-.221,0-.513.011l.991-2.081.717.011c.075,0,.365,0,.866-.011Zm-.656,7.281.268-1.149.808-3.991.382-2.147q.738.011,1.113.011.486,0,1.074-.011l-.368,1.639-.8,4.036-.285,1.611c-.382,0-.724-.006-1.029-.006l-1.159.006Zm3.381,0,.268-1.149.808-3.991.382-2.147q.738.011,1.113.011.486,0,1.074-.011l-.368,1.639-.8,4.036-.285,1.611c-.382,0-.723-.006-1.029-.006l-1.159.006Zm10.334-1.562c-.109.3-.209.592-.3.878l-.217.652c-.365.075-.647.124-.846.143a5.8,5.8,0,0,1-.58.031,3.552,3.552,0,0,1-.8-.078,1.087,1.087,0,0,1-.545-.282.861.861,0,0,1-.249-.472,1.814,1.814,0,0,1,0-.566c.006-.036.017-.1.034-.19s.061-.293.128-.606l.395-1.848h-.836q.083-.368.193-.968l.091-.5h.887q.071-.246.242-1.07l.943-.19c.172-.033.542-.115,1.108-.247q-.144.7-.28,1.507h1.211c-.14.737-.227,1.225-.263,1.464h-1.223l-.265,1.336c-.038.2-.06.326-.069.384a1.335,1.335,0,0,0-.008.428.337.337,0,0,0,.161.246.6.6,0,0,0,.3.075,2.033,2.033,0,0,0,.27-.018,5.166,5.166,0,0,0,.511-.113Zm1.531-2.338c.12-.349.2-.59.236-.723s.1-.339.18-.621a13.241,13.241,0,0,1,2.687-.339,4.13,4.13,0,0,1,1.129.142,1.376,1.376,0,0,1,.745.455,1.149,1.149,0,0,1,.158.9q-.045.3-.283,1.344t-.533,2.74c-.348-.008-.7-.011-1.04-.011s-.693,0-1.07.011q.162-.587.528-2.425c-.145.065-.257.113-.338.14s-.22.073-.42.131-.358.106-.472.146a1.275,1.275,0,0,0-.305.153.689.689,0,0,0-.2.189.5.5,0,0,0-.084.217.359.359,0,0,0,.1.315.606.606,0,0,0,.441.129,1.814,1.814,0,0,0,.245-.018,2.471,2.471,0,0,0,.367-.091q-.217.4-.55,1.18a5.468,5.468,0,0,1-.88.077,2.668,2.668,0,0,1-1.074-.184,1.115,1.115,0,0,1-.587-.6,1.491,1.491,0,0,1-.113-.823,1.588,1.588,0,0,1,.162-.492,1.962,1.962,0,0,1,.346-.469,2.3,2.3,0,0,1,.494-.391,3.629,3.629,0,0,1,.729-.308,9.935,9.935,0,0,1,1.141-.271q.284-.055.525-.115a2.69,2.69,0,0,0,.346-.107.7.7,0,0,0,.174-.106.444.444,0,0,0,.107-.127.415.415,0,0,0,.049-.14.3.3,0,0,0-.122-.315.826.826,0,0,0-.482-.111,7.216,7.216,0,0,0-2.335.514Zm5.5,3.9c.118-.455.21-.824.275-1.111.086-.388.189-.874.306-1.457l.249-1.265q.167-.86.3-1.644.164-.939.295-1.81.744.011,1.118.011c.288,0,.629,0,1.025-.011q-.334,1.4-.748,3.476t-.675,3.811c-.412-.008-.759-.011-1.045-.011q-.489,0-1.1.011Zm2.811-3.064,1.119-1.324.851-1.063c.49.008.861.011,1.114.011q.524,0,1.241-.011l-1.271,1.384q-.446.475-.917,1.025.27.688,1.344,3.042c-.416-.008-.792-.011-1.127-.011s-.736,0-1.179.011l-.231-.667c-.084-.233-.155-.426-.216-.583-.023-.064-.2-.5-.536-1.307l-.191-.508Zm9.552,1.458q-.117.319-.494,1.54-.64.126-1.068.166c-.286.027-.572.042-.862.042a7.071,7.071,0,0,1-1.158-.087,2.351,2.351,0,0,1-.876-.313,1.769,1.769,0,0,1-.566-.555,2,2,0,0,1-.279-.792,3.182,3.182,0,0,1,.006-.943,3.837,3.837,0,0,1,.475-1.336,3.277,3.277,0,0,1,.855-1.02,3.03,3.03,0,0,1,1.069-.523,4.544,4.544,0,0,1,1.172-.155,4.385,4.385,0,0,1,1.138.142,1.781,1.781,0,0,1,.863.492,1.655,1.655,0,0,1,.428.793,2.65,2.65,0,0,1,.018.954,4.236,4.236,0,0,1-.167.677l-3.753.006c-.012.056-.022.107-.029.155a.816.816,0,0,0,.285.847,1.6,1.6,0,0,0,.966.271,4.791,4.791,0,0,0,.819-.082c.308-.054.7-.148,1.158-.278Zm-3.035-1.726h1.766c.013-.06.022-.111.029-.155a1,1,0,0,0-.027-.474.5.5,0,0,0-.241-.285.849.849,0,0,0-.4-.091,1.007,1.007,0,0,0-.317.051,1.025,1.025,0,0,0-.294.149,1.129,1.129,0,0,0-.234.226,1.348,1.348,0,0,0-.155.246C247.208,149.114,247.166,149.225,247.119,149.367Zm5.9,5.757q.024-1.275.01-1.584a2.542,2.542,0,0,0,.561.215,2,2,0,0,0,.438.058,1.361,1.361,0,0,0,.377-.053,1.059,1.059,0,0,0,.294-.127,1.513,1.513,0,0,0,.258-.235,2.679,2.679,0,0,0,.219-.27,2.111,2.111,0,0,0,.165-.322l-.545-3.038-.479-2.52c.529.008.9.011,1.114.011.247,0,.589,0,1.021-.011q.04.41.161,1.42c.083.672.136,1.2.161,1.58.014.209.019.477.012.8l.175-.428c.053-.113.113-.244.182-.39s.152-.32.254-.523l.493-.972.8-1.489q.665.011,1.005.011.3,0,1.067-.011l-1.378,2.329-2.511,4.319a4.544,4.544,0,0,1-.433.577,2.766,2.766,0,0,1-.387.335,2.186,2.186,0,0,1-.4.224,3.19,3.19,0,0,1-.615.193,3.63,3.63,0,0,1-.725.075c-.109,0-.254-.009-.433-.025s-.32-.036-.431-.053-.252-.049-.43-.1Zm11.278-8.007a3.754,3.754,0,0,1,1.244.2,2.352,2.352,0,0,1,.945.584,1.914,1.914,0,0,1,.488.892,2.826,2.826,0,0,1,.035,1.1,3.659,3.659,0,0,1-.342,1.085,3.351,3.351,0,0,1-.752.965,3.217,3.217,0,0,1-1.188.675,4.613,4.613,0,0,1-1.43.224,4.035,4.035,0,0,1-1.274-.2,2.3,2.3,0,0,1-.956-.577,1.976,1.976,0,0,1-.493-.907,2.823,2.823,0,0,1-.044-1.109,3.393,3.393,0,0,1,.373-1.111,3.186,3.186,0,0,1,.795-.949,3.612,3.612,0,0,1,1.2-.648,4.479,4.479,0,0,1,1.4-.228Zm-.274,1.573a1.229,1.229,0,0,0-.636.174,1.363,1.363,0,0,0-.48.514,2.185,2.185,0,0,0-.248.737,1.135,1.135,0,0,0,.158.9.833.833,0,0,0,.69.311,1.2,1.2,0,0,0,.631-.178,1.354,1.354,0,0,0,.482-.526,2.256,2.256,0,0,0,.249-.748,1.522,1.522,0,0,0-.018-.6.724.724,0,0,0-.285-.424.893.893,0,0,0-.544-.161Zm9.314,4.009q-.608-.011-1.013-.011c-.335,0-.67,0-1.01.011l.1-.732a3.864,3.864,0,0,1-.381.363,2.08,2.08,0,0,1-.324.211,2.151,2.151,0,0,1-.375.158,2.577,2.577,0,0,1-.464.1,3.571,3.571,0,0,1-.519.038,2.962,2.962,0,0,1-.783-.1,1.435,1.435,0,0,1-.61-.335.977.977,0,0,1-.309-.535,2.045,2.045,0,0,1,0-.7c.01-.063.03-.164.061-.3l.267-1.213q.139-.666.292-1.478.1-.5.164-.939.659.011,1.122.011t1.036-.011l-.473,2.034c-.072.31-.117.521-.135.634s-.032.188-.038.226a.906.906,0,0,0,.111.765.679.679,0,0,0,.509.2.912.912,0,0,0,.259-.039,1.089,1.089,0,0,0,.26-.107,1.07,1.07,0,0,0,.21-.16,1.322,1.322,0,0,0,.2-.246,2.061,2.061,0,0,0,.185-.38,6.706,6.706,0,0,0,.2-.719c.046-.209.123-.573.226-1.089l.214-1.116c.459.008.836.011,1.133.011q.5,0,1-.011-.326,1.358-.578,2.578t-.537,2.873Zm3.9,0c.138-.53.244-.967.321-1.308q.238-1.073.532-2.494.191-.939.345-1.8t.279-1.683q.673.011,1.1.011.576,0,1.089-.011L280.6,146.7c-.05.213-.145.646-.281,1.3a4.3,4.3,0,0,1,.338-.333,2.146,2.146,0,0,1,.922-.472,2.833,2.833,0,0,1,.416-.074,3.724,3.724,0,0,1,.461-.027,3.585,3.585,0,0,1,.86.1,1.424,1.424,0,0,1,.669.355,1.056,1.056,0,0,1,.319.564,2.044,2.044,0,0,1,0,.687c-.015.1-.035.224-.065.382s-.07.358-.123.6l-.384,1.8c-.049.224-.084.411-.108.559s-.054.333-.088.557q-.553-.011-1.062-.011c-.38,0-.769,0-1.161.011.131-.474.268-1.018.407-1.637s.233-1.076.279-1.378a.864.864,0,0,0-.1-.7.668.668,0,0,0-.527-.2,1.264,1.264,0,0,0-.567.127,1.307,1.307,0,0,0-.425.348,2.1,2.1,0,0,0-.315.57,9.587,9.587,0,0,0-.366,1.34q-.109.491-.3,1.537c-.359-.008-.694-.011-1.007-.011s-.7,0-1.148.011Zm11.484-5.582a3.755,3.755,0,0,1,1.244.2,2.352,2.352,0,0,1,.945.584,1.914,1.914,0,0,1,.488.892,2.825,2.825,0,0,1,.035,1.1,3.658,3.658,0,0,1-.342,1.085,3.351,3.351,0,0,1-.752.965,3.217,3.217,0,0,1-1.188.675,4.613,4.613,0,0,1-1.43.224,4.035,4.035,0,0,1-1.274-.2,2.3,2.3,0,0,1-.956-.577,1.977,1.977,0,0,1-.493-.907,2.823,2.823,0,0,1-.044-1.109,3.392,3.392,0,0,1,.373-1.111,3.185,3.185,0,0,1,.8-.949,3.611,3.611,0,0,1,1.2-.648,4.481,4.481,0,0,1,1.4-.228Zm-.274,1.573a1.229,1.229,0,0,0-.636.174,1.363,1.363,0,0,0-.48.514,2.185,2.185,0,0,0-.248.737,1.135,1.135,0,0,0,.158.9.833.833,0,0,0,.69.311,1.2,1.2,0,0,0,.631-.178,1.354,1.354,0,0,0,.482-.526,2.256,2.256,0,0,0,.249-.748,1.523,1.523,0,0,0-.018-.6.724.724,0,0,0-.285-.424.893.893,0,0,0-.544-.161Zm3.359,4.009.541-2.573.391-2.014.141-.865q.586.011,1.032.011c.339,0,.667,0,.989-.011l-.147.717a4.135,4.135,0,0,1,.33-.328,2.01,2.01,0,0,1,.312-.22,1.921,1.921,0,0,1,.367-.164,2.627,2.627,0,0,1,.41-.1,2.933,2.933,0,0,1,.462-.037,2.444,2.444,0,0,1,.5.046,1.719,1.719,0,0,1,.378.115,1.079,1.079,0,0,1,.263.16.933.933,0,0,1,.184.2,1.936,1.936,0,0,1,.166.333,2.438,2.438,0,0,1,.573-.517,2.206,2.206,0,0,1,.633-.259,3,3,0,0,1,.7-.082,2.6,2.6,0,0,1,.852.133,1.13,1.13,0,0,1,.6.462,1.185,1.185,0,0,1,.136.85c-.024.162-.073.41-.147.741s-.188.9-.349,1.7-.268,1.369-.321,1.693q-.49-.011-.949-.011c-.373,0-.764,0-1.174.011q.154-.678.36-1.7c.139-.681.226-1.152.266-1.415a1.221,1.221,0,0,0,0-.515.378.378,0,0,0-.167-.231.533.533,0,0,0-.262-.062.669.669,0,0,0-.282.058.775.775,0,0,0-.251.2,1.774,1.774,0,0,0-.271.446,3.513,3.513,0,0,0-.2.639c-.069.291-.147.675-.233,1.15l-.26,1.429c-.381-.008-.727-.011-1.033-.011s-.685,0-1.112.011q.121-.475.352-1.6c.156-.746.251-1.246.289-1.5a1.281,1.281,0,0,0,.009-.479.493.493,0,0,0-.142-.255.407.407,0,0,0-.293-.1.647.647,0,0,0-.382.122,1.218,1.218,0,0,0-.319.351,2.286,2.286,0,0,0-.25.632c-.071.268-.16.677-.265,1.227s-.2,1.081-.285,1.589q-.643-.011-1.043-.011-.443,0-1.1.011Zm15.7-1.606q-.117.319-.494,1.54-.64.126-1.068.166c-.286.027-.572.042-.862.042a7.069,7.069,0,0,1-1.158-.087,2.357,2.357,0,0,1-.876-.313,1.775,1.775,0,0,1-.566-.555,2,2,0,0,1-.279-.792,3.182,3.182,0,0,1,.006-.943,3.838,3.838,0,0,1,.475-1.336,3.276,3.276,0,0,1,.855-1.02,3.033,3.033,0,0,1,1.069-.523,4.549,4.549,0,0,1,1.172-.155,4.386,4.386,0,0,1,1.138.142,1.783,1.783,0,0,1,.864.492,1.659,1.659,0,0,1,.428.793,2.658,2.658,0,0,1,.018.954,4.229,4.229,0,0,1-.167.677l-3.753.006c-.012.056-.022.107-.029.155a.817.817,0,0,0,.285.847,1.6,1.6,0,0,0,.966.271,4.787,4.787,0,0,0,.819-.082c.309-.054.7-.148,1.158-.278Zm-3.036-1.726h1.766c.013-.06.022-.111.029-.155a.99.99,0,0,0-.027-.474.5.5,0,0,0-.241-.285.849.849,0,0,0-.4-.091,1.01,1.01,0,0,0-.317.051,1.025,1.025,0,0,0-.294.149,1.129,1.129,0,0,0-.234.226,1.322,1.322,0,0,0-.155.246c-.035.08-.078.191-.125.333Z" transform="translate(-39.533 -90.299)"/></svg>