{
    "asset" : {
        "generator" : "Khronos glTF Blender I/O v3.2.40",
        "version" : "2.0"
    },
    "scene" : 0,
    "scenes" : [
        {
            "name" : "Scene",
            "nodes" : [
                9,
                10
            ]
        }
    ],
    "nodes" : [
        {
            "name" : "Bone.007",
            "rotation" : [
                0.05436034873127937,
                5.716512168874033e-05,
                0.009984374046325684,
                0.9984715580940247
            ],
            "scale" : [
                1,
                1.0000001192092896,
                1
            ],
            "translation" : [
                4.656612873077393e-10,
                0.11584021896123886,
                -1.9383151084184647e-08
            ]
        },
        {
            "children" : [
                0
            ],
            "name" : "Bone.006",
            "rotation" : [
                -0.13019518554210663,
                -0.00040223964606411755,
                -0.01756693609058857,
                0.9913327693939209
            ],
            "scale" : [
                1,
                1.000000238418579,
                1
            ],
            "translation" : [
                1.1641532182693481e-08,
                0.1259685456752777,
                4.7672074288129807e-08
            ]
        },
        {
            "children" : [
                1
            ],
            "name" : "Bone.005",
            "rotation" : [
                0.16163741052150726,
                -3.1147372681061825e-08,
                0.016199477016925812,
                0.9867173433303833
            ],
            "scale" : [
                1,
                0.9999998211860657,
                1
            ],
            "translation" : [
                -2.7939677238464355e-09,
                0.1391076296567917,
                -1.501757651567459e-08
            ]
        },
        {
            "children" : [
                2
            ],
            "name" : "Bone.004",
            "rotation" : [
                0.1264827996492386,
                -2.4999263104064084e-08,
                0.012676242738962173,
                0.9918878078460693
            ],
            "translation" : [
                2.7939677238464355e-09,
                0.14172488451004028,
                -9.487848728895187e-09
            ]
        },
        {
            "children" : [
                3
            ],
            "name" : "Bone.003",
            "rotation" : [
                0.11237618327140808,
                -6.15115958169099e-09,
                0.011262464337050915,
                0.9936019778251648
            ],
            "scale" : [
                1,
                1,
                1.0000001192092896
            ],
            "translation" : [
                -1.862645149230957e-09,
                0.1170530915260315,
                -1.3387762010097504e-09
            ]
        },
        {
            "children" : [
                4
            ],
            "name" : "Bone.002",
            "rotation" : [
                -0.08783405274152756,
                -3.266796397838334e-07,
                -0.048472195863723755,
                0.9949551224708557
            ],
            "translation" : [
                6.51925802230835e-09,
                0.08828262984752655,
                1.5657860785722733e-08
            ]
        },
        {
            "children" : [
                5
            ],
            "name" : "Bone.001",
            "rotation" : [
                0.7158532738685608,
                0.008993743918836117,
                0.06575991213321686,
                0.6950891017913818
            ],
            "scale" : [
                1.0000110864639282,
                0.9999996423721313,
                1.0000020265579224
            ],
            "translation" : [
                0.005210693459957838,
                0.07420453429222107,
                -0.3887268304824829
            ]
        },
        {
            "name" : "neutral_bone",
            "rotation" : [
                -0.7071068286895752,
                0,
                0,
                0.7071068286895752
            ]
        },
        {
            "mesh" : 0,
            "name" : "pCylinder6",
            "skin" : 0
        },
        {
            "children" : [
                8,
                6,
                7
            ],
            "name" : "Armature",
            "translation" : [
                0.007337514776736498,
                0.19501304626464844,
                0.7916723489761353
            ]
        },
        {
            "name" : "Empty",
            "translation" : [
                0.009767759591341019,
                0.0618242472410202,
                1.159436821937561
            ]
        }
    ],
    "animations" : [
        {
            "channels" : [
                {
                    "sampler" : 0,
                    "target" : {
                        "node" : 10,
                        "path" : "translation"
                    }
                }
            ],
            "name" : "EmptyAction",
            "samplers" : [
                {
                    "input" : 8,
                    "interpolation" : "LINEAR",
                    "output" : 9
                }
            ]
        }
    ],
    "materials" : [
        {
            "doubleSided" : true,
            "name" : "lambert2",
            "pbrMetallicRoughness" : {
                "baseColorTexture" : {
                    "index" : 0
                },
                "metallicFactor" : 0
            }
        }
    ],
    "meshes" : [
        {
            "name" : "Mesh",
            "primitives" : [
                {
                    "attributes" : {
                        "POSITION" : 0,
                        "NORMAL" : 1,
                        "TEXCOORD_0" : 2,
                        "TEXCOORD_1" : 3,
                        "JOINTS_0" : 4,
                        "WEIGHTS_0" : 5
                    },
                    "indices" : 6,
                    "material" : 0
                }
            ]
        }
    ],
    "textures" : [
        {
            "sampler" : 0,
            "source" : 0
        }
    ],
    "images" : [
        {
            "bufferView" : 7,
            "mimeType" : "image/png",
            "name" : "Hoover_Fixed_D"
        }
    ],
    "skins" : [
        {
            "inverseBindMatrices" : 7,
            "joints" : [
                6,
                5,
                4,
                3,
                2,
                1,
                0,
                7
            ],
            "name" : "Armature"
        }
    ],
    "accessors" : [
        {
            "bufferView" : 0,
            "componentType" : 5126,
            "count" : 515,
            "max" : [
                0.40949997305870056,
                0.7628535628318787,
                1.2996309995651245
            ],
            "min" : [
                -0.40949979424476624,
                -0.00885848980396986,
                -0.4094998836517334
            ],
            "type" : "VEC3"
        },
        {
            "bufferView" : 1,
            "componentType" : 5126,
            "count" : 515,
            "type" : "VEC3"
        },
        {
            "bufferView" : 2,
            "componentType" : 5126,
            "count" : 515,
            "type" : "VEC2"
        },
        {
            "bufferView" : 3,
            "componentType" : 5126,
            "count" : 515,
            "type" : "VEC2"
        },
        {
            "bufferView" : 4,
            "componentType" : 5121,
            "count" : 515,
            "type" : "VEC4"
        },
        {
            "bufferView" : 5,
            "componentType" : 5126,
            "count" : 515,
            "type" : "VEC4"
        },
        {
            "bufferView" : 6,
            "componentType" : 5123,
            "count" : 1512,
            "type" : "SCALAR"
        },
        {
            "bufferView" : 8,
            "componentType" : 5126,
            "count" : 8,
            "type" : "MAT4"
        },
        {
            "bufferView" : 9,
            "componentType" : 5126,
            "count" : 61,
            "max" : [
                2.5
            ],
            "min" : [
                0
            ],
            "type" : "SCALAR"
        },
        {
            "bufferView" : 10,
            "componentType" : 5126,
            "count" : 61,
            "type" : "VEC3"
        }
    ],
    "bufferViews" : [
        {
            "buffer" : 0,
            "byteLength" : 6180,
            "byteOffset" : 0
        },
        {
            "buffer" : 0,
            "byteLength" : 6180,
            "byteOffset" : 6180
        },
        {
            "buffer" : 0,
            "byteLength" : 4120,
            "byteOffset" : 12360
        },
        {
            "buffer" : 0,
            "byteLength" : 4120,
            "byteOffset" : 16480
        },
        {
            "buffer" : 0,
            "byteLength" : 2060,
            "byteOffset" : 20600
        },
        {
            "buffer" : 0,
            "byteLength" : 8240,
            "byteOffset" : 22660
        },
        {
            "buffer" : 0,
            "byteLength" : 3024,
            "byteOffset" : 30900
        },
        {
            "buffer" : 0,
            "byteLength" : 53153,
            "byteOffset" : 33924
        },
        {
            "buffer" : 0,
            "byteLength" : 512,
            "byteOffset" : 87080
        },
        {
            "buffer" : 0,
            "byteLength" : 244,
            "byteOffset" : 87592
        },
        {
            "buffer" : 0,
            "byteLength" : 732,
            "byteOffset" : 87836
        }
    ],
    "samplers" : [
        {
            "magFilter" : 9729,
            "minFilter" : 9987
        }
    ],
    "buffers" : [
        {
            "byteLength" : 88568,
            "uri" : "data:application/octet-stream;base64,"
        }
    ]
}
