<svg width="1156" height="283" viewBox="0 0 1156 283" fill="none" xmlns="http://www.w3.org/2000/svg">
<g clip-path="url(#clip0_1_2)">
<path d="M535.728 280.431L575.749 280.195L575.725 276.833L535.703 277.069L535.728 280.431" fill="#E7E8E5"/>
<path d="M648.492 280.431L608.471 280.195L608.495 276.833L648.516 277.069L648.492 280.431Z" fill="white"/>
<path d="M474.837 208.212C474.908 207.953 476.556 201.791 477.124 193.645C477.653 186.076 477.285 175.351 472.539 167.241C469.209 161.557 464.172 157.831 457.568 156.165L457.071 158.14C463.124 159.667 467.736 163.075 470.777 168.267C479.397 182.979 472.937 207.435 472.872 207.68L474.837 208.212" fill="#5AB687"/>
<path d="M475.593 188.168C475.593 188.168 478.765 174.656 488.464 179.185C488.464 179.185 486.021 192.468 475.593 188.168Z" fill="#5AB687"/>
<path d="M460.512 179.429C460.512 179.429 472.804 176.199 476.456 186.26C476.456 186.26 464.842 189.845 460.512 179.429Z" fill="#5AB687"/>
<path d="M474.777 174.389C474.777 174.389 469.852 162.311 479.168 157.037C479.168 157.037 484.329 168.388 474.777 174.389Z" fill="#5AB687"/>
<path d="M473.58 171.084C473.58 171.084 463.224 177.536 457.117 168.745C457.117 168.745 466.725 162.125 473.58 171.084Z" fill="#5AB687"/>
<path d="M464.557 160.065C464.557 160.065 454.204 166.517 448.096 157.725C448.096 157.725 457.705 151.107 464.557 160.065Z" fill="#5AB687"/>
<path d="M460.573 200.644L466.772 192.464H484.369L490.568 200.644C491.789 202.256 491.927 204.444 490.915 206.195L486.571 213.709H475.835H475.307H464.571L460.228 206.195C459.215 204.444 459.352 202.256 460.573 200.644" fill="#2B2930"/>
<path d="M502.033 275.667V248.989H449.847V275.667H502.033ZM502.033 244.853V218.175H449.847V244.853H502.033ZM506.168 214.039V279.804H445.712V214.039H506.168Z" fill="#F3F3F3"/>
<path d="M492.768 244.805H496.317C496.714 244.805 497.038 244.481 497.038 244.083V222.935C497.038 222.536 496.714 222.213 496.317 222.213H492.768C492.369 222.213 492.045 222.536 492.045 222.935V244.083C492.045 244.481 492.369 244.805 492.768 244.805Z" fill="#2B2930"/>
<path d="M486.175 244.805H489.724C490.123 244.805 490.445 244.481 490.445 244.083V222.935C490.445 222.536 490.123 222.213 489.724 222.213H486.175C485.776 222.213 485.453 222.536 485.453 222.935V244.083C485.453 244.481 485.776 244.805 486.175 244.805Z" fill="#F13F86"/>
<path d="M479.681 244.805H483.229C483.628 244.805 483.951 244.481 483.951 244.083V222.935C483.951 222.536 483.628 222.213 483.229 222.213H479.681C479.283 222.213 478.959 222.536 478.959 222.935V244.083C478.959 244.481 479.283 244.805 479.681 244.805Z" fill="#2B2930"/>
<path d="M463.233 242.423L466.336 244.161C466.673 244.349 467.104 244.237 467.298 243.911L478.233 225.531C478.429 225.203 478.313 224.784 477.976 224.596L474.874 222.857C474.536 222.668 474.104 222.78 473.91 223.108L462.976 241.488C462.78 241.815 462.896 242.233 463.233 242.423" fill="#F13F86"/>
<path d="M455.008 242.423L458.111 244.161C458.448 244.349 458.879 244.237 459.075 243.911L470.008 225.531C470.204 225.203 470.088 224.784 469.751 224.596L466.648 222.857C466.311 222.668 465.879 222.78 465.685 223.108L454.751 241.488C454.555 241.815 454.671 242.233 455.008 242.423" fill="#F13F86"/>
<path d="M446.633 281.083H801.015V279.777H446.633V281.083Z" fill="#8E80C8"/>
<path d="M222.383 266.605L219.871 248.491L232.907 246.017L235.745 268.608L225.909 270.691L222.383 266.605" fill="#F59DA1"/>
<path d="M221.451 266.609C221.451 266.609 231.272 270.577 235.833 264.197L255.323 276.331L218.473 276.316L221.451 266.609" fill="#242340"/>
<path d="M255.343 279.556L218.493 279.541L218.473 276.316L255.323 276.331L255.343 279.556Z" fill="#F3F3F3"/>
<path d="M235.621 269.555L235.895 269.344C237.42 267.317 238.96 266.312 238.975 266.303C239.279 266.107 239.359 265.715 239.153 265.425C238.948 265.136 238.531 265.067 238.232 265.255C238.161 265.3 236.489 266.384 234.813 268.608C234.6 268.892 234.668 269.287 234.967 269.489C235.164 269.624 235.413 269.641 235.621 269.555" fill="white"/>
<path d="M238.867 271.153L239.14 270.943C240.667 268.917 242.205 267.912 242.221 267.901C242.525 267.707 242.605 267.313 242.399 267.024C242.195 266.735 241.776 266.663 241.479 266.853C241.408 266.899 239.736 267.983 238.06 270.207C237.845 270.491 237.915 270.885 238.212 271.089C238.409 271.223 238.659 271.24 238.867 271.153Z" fill="white"/>
<path d="M242.112 272.752L242.387 272.541C243.913 270.516 245.452 269.511 245.468 269.5C245.771 269.305 245.851 268.912 245.645 268.623C245.441 268.333 245.023 268.261 244.724 268.452C244.653 268.497 242.981 269.583 241.305 271.805C241.091 272.088 241.16 272.484 241.459 272.687C241.656 272.821 241.905 272.837 242.112 272.752" fill="white"/>
<path d="M222.744 153.461C222.744 153.461 238.492 208.629 239.209 254.249L213.059 258.899C213.059 258.899 210.229 211.353 198.289 171.597L197.431 153.461H222.744" fill="#F13F86"/>
<path d="M137.335 248.689L147.649 233.588L158.964 240.517L145.885 259.153L137.201 254.084L137.335 248.689" fill="#F59DA1"/>
<path d="M136.641 248.067C136.641 248.067 141.248 257.605 148.913 255.947L155.192 278.028L127.915 253.253L136.641 248.067Z" fill="#242340"/>
<path d="M153.04 280.431L125.763 255.655L127.915 253.253L155.192 278.028L153.04 280.431" fill="#F3F3F3"/>
<path d="M145.156 259.771L145.5 259.799C147.992 259.324 149.807 259.613 149.825 259.616C150.181 259.676 150.505 259.439 150.547 259.085C150.589 258.733 150.327 258.403 149.98 258.341C149.897 258.327 147.931 258.007 145.195 258.527C144.845 258.593 144.631 258.932 144.715 259.283C144.771 259.515 144.944 259.695 145.156 259.771Z" fill="white"/>
<path d="M146.485 263.136L146.829 263.164C149.321 262.689 151.137 262.979 151.155 262.983C151.511 263.041 151.833 262.804 151.876 262.452C151.919 262.1 151.657 261.765 151.309 261.707C151.227 261.692 149.26 261.372 146.524 261.892C146.175 261.959 145.96 262.297 146.044 262.648C146.1 262.88 146.273 263.06 146.485 263.136" fill="white"/>
<path d="M147.815 266.5L148.159 266.528C150.651 266.055 152.465 266.345 152.484 266.348C152.84 266.407 153.164 266.169 153.205 265.817C153.248 265.467 152.987 265.131 152.639 265.072C152.556 265.057 150.588 264.737 147.853 265.256C147.504 265.323 147.289 265.663 147.373 266.013C147.429 266.245 147.603 266.425 147.815 266.5Z" fill="white"/>
<path d="M204.343 172.652C204.343 172.652 194.033 210.32 160.732 250.511L138.715 236.195C138.715 236.195 159.265 207.284 165.019 189.796C170.773 172.308 174.261 147.229 196.567 135.027L222.744 153.461L204.343 172.652Z" fill="#F13F86"/>
<path d="M201.377 182.415L213.329 176.617L212.92 175.773L200.967 181.569" fill="#4145A5"/>
<path d="M258.869 142.465L256.376 167.403C256.101 171.24 253.833 174.037 250.005 173.656C246.536 173.309 243.887 170.407 243.855 166.921L243.719 141.708L258.869 142.465Z" fill="#F59DA1"/>
<path d="M251.208 161.268C247.167 160.724 243.645 164.409 244.045 168.468L251.959 200.74L260.947 200.501L256.376 167.403C256.453 164.181 254.401 161.697 251.208 161.268" fill="#F59DA1"/>
<path d="M250.151 201.679C250.715 197.508 254.552 194.584 258.723 195.147C262.893 195.709 265.819 199.548 265.256 203.719C264.693 207.889 260.855 210.815 256.684 210.251C252.513 209.688 249.588 205.851 250.151 201.679Z" fill="#F59DA1"/>
<path d="M262.472 208.639C262.472 208.639 265.625 210.097 266.463 206.187C267.3 202.276 266.22 196.763 258.723 195.147L262.472 208.639" fill="#F59DA1"/>
<path d="M250.151 201.679C250.715 197.508 254.552 194.584 258.723 195.147C262.893 195.709 265.819 199.548 265.256 203.719C264.693 207.889 260.855 210.815 256.684 210.251C252.513 209.688 249.588 205.851 250.151 201.679Z" fill="#F59DA1"/>
<path d="M262.472 208.639C262.472 208.639 265.625 210.097 266.463 206.187C267.3 202.276 266.22 196.763 258.723 195.147L262.472 208.639" fill="#F59DA1"/>
<path d="M242.287 145.452C242.377 145.432 247.983 143.956 253.816 135.288L253.037 134.764C250.183 139.001 247.413 141.448 245.371 142.836C244.348 143.531 243.508 143.96 242.928 144.215C242.639 144.341 242.415 144.425 242.265 144.476L242.099 144.529L242.053 144.543L242.287 145.452" fill="#D4D2CF"/>
<path d="M262 70.388C259.507 74.5254 260.839 79.9 264.976 82.3934C269.112 84.8854 274.487 83.552 276.979 79.416C279.472 75.2787 278.139 69.9053 274.003 67.412C269.867 64.9187 264.492 66.252 262 70.388Z" fill="#3C261F"/>
<path d="M276.469 83.5C276.469 83.5 276.675 78.1573 268.989 78.068C261.304 77.9786 261.288 84.096 261.288 84.096L276.469 83.5Z" fill="#EF266E"/>
<path d="M273.979 79.96C273.979 79.96 276.889 78.5986 280.701 80.5826C280.701 80.5826 275.124 84.2733 272.927 80.8613L273.979 79.96Z" fill="#F13F86"/>
<path d="M272.2 79.2787C272.2 79.2787 272.309 77.4694 267.181 75.4694C267.181 75.4694 266.504 81.4961 271.963 80.4214" fill="#F13F86"/>
<path d="M271.939 79.7947C271.789 80.4427 272.193 81.0881 272.84 81.2387C273.488 81.3881 274.133 80.9841 274.283 80.3361C274.432 79.6881 274.028 79.0428 273.381 78.8934C272.733 78.7441 272.088 79.1481 271.939 79.7947Z" fill="#F13F86"/>
<path d="M256.607 86.6987C251.78 93.3827 252.34 103.641 259.025 108.469C265.709 113.297 274.308 109.248 280.812 104.18C287.709 98.8053 284.135 88.164 277.451 83.336C270.767 78.5093 261.435 80.0147 256.607 86.6987" fill="#3C261F"/>
<path d="M260.909 110.975L254.557 115.957C251.924 118.027 249.24 117.509 247.224 114.901C245.503 112.673 242.992 111.009 244.989 109.027L258.139 99.9227L260.909 110.975" fill="#F59DA1"/>
<path d="M255.629 115.123L254.847 102.739L261.692 110.388L255.629 115.123Z" fill="#E17581"/>
<path d="M258.199 112.861C262.237 116.775 268.611 116.841 271.872 113.687L279.52 106.196C283.607 102.241 283.783 95.7133 279.917 91.4427C275.961 87.0707 268.56 85.9267 264.244 89.8333L258.16 95.9267C253.453 100.639 253.672 107.861 258.199 112.861Z" fill="#F59DA1"/>
<path d="M269.064 108.015L268.103 109.276L267.287 108.572C267.133 108.439 266.901 108.456 266.768 108.611C266.636 108.764 266.653 108.996 266.807 109.128L267.917 110.088L268.196 110.175L268.451 110.032L269.648 108.461C269.772 108.3 269.74 108.069 269.579 107.945C269.417 107.823 269.187 107.853 269.064 108.016" fill="#1F1617"/>
<path d="M269.776 98.6894C269.776 98.6894 271.695 100.195 271.016 100.959C271.016 100.959 270.543 101.464 268.899 100.119C267.253 98.7747 266.96 98.2801 267.261 97.6734C267.561 97.0667 268.939 97.9174 269.776 98.6894" fill="#1F1617"/>
<path d="M276.673 105.485C276.673 105.485 275.352 103.961 274.577 104.552C274.577 104.552 274.065 104.963 275.251 106.267C276.435 107.571 277.009 107.792 277.489 107.521C278.031 107.215 277.36 106.147 276.673 105.485" fill="#1F1617"/>
<path d="M272.275 108.024C271.913 108.38 271.908 108.96 272.263 109.321C272.619 109.683 273.199 109.688 273.56 109.333C273.921 108.977 273.927 108.397 273.572 108.036C273.217 107.675 272.636 107.669 272.275 108.024Z" fill="#1F1617"/>
<path d="M266.729 102.453C266.348 102.829 266.343 103.443 266.717 103.824C267.092 104.205 267.705 104.212 268.087 103.836C268.469 103.461 268.475 102.848 268.1 102.467C267.724 102.084 267.111 102.079 266.729 102.453" fill="#1F1617"/>
<path d="M265.591 110.632L264.803 109.831C264.661 109.685 264.428 109.684 264.283 109.827C264.139 109.969 264.136 110.201 264.279 110.347L265.067 111.148C265.209 111.292 265.441 111.295 265.587 111.152C265.731 111.009 265.733 110.777 265.591 110.632Z" fill="#1F1617"/>
<path d="M244.989 109.027L254.557 115.957Z" fill="#F59DA1"/>
<path d="M262.089 95.984C262.089 95.984 266.875 90.148 270.715 90.548C274.555 90.948 277.788 99.6293 282.604 100.117C282.604 100.117 284.375 94.1333 280.479 89.776C277.228 86.1427 269.125 83.5747 269.125 83.5747L263.352 83.6067L261.577 90.9947L262.089 95.984" fill="#3C261F"/>
<path d="M255.889 90.94C254.303 92.4947 254.277 95.0427 255.833 96.628C257.388 98.2147 259.935 98.24 261.521 96.6854C263.108 95.1294 263.133 92.5814 261.577 90.9947C260.023 89.4094 257.475 89.384 255.889 90.94Z" fill="#F59DA1"/>
<path d="M259.072 95.8947C259.088 95.8667 260.027 94.9894 260.043 93.7467C260.049 93.064 259.711 92.3 258.837 91.6694C258.687 91.5587 258.475 91.5907 258.365 91.7414C258.255 91.892 258.287 92.104 258.437 92.2147C259.177 92.764 259.361 93.276 259.367 93.7467C259.369 94.1787 259.183 94.6027 258.984 94.9147C258.885 95.072 258.787 95.1987 258.713 95.2853L258.627 95.384L258.599 95.412C258.465 95.5427 258.463 95.7574 258.593 95.8907C258.725 96.024 258.939 96.0254 259.072 95.8947" fill="#1F1617"/>
<path d="M251.86 114.235C251.86 114.235 255.732 118.424 258.491 123.867C258.491 123.867 247.033 124.456 236.821 102.181C236.821 102.181 242.031 105.047 251.86 114.235Z" fill="#F59DA1"/>
<path d="M319.841 273.724H300.811C297.591 273.724 294.98 276.335 294.98 279.556H324.741C324.741 276.335 323.063 273.724 319.841 273.724Z" fill="#2B2930"/>
<path d="M344.084 273.724H316.076C312.856 273.724 310.245 276.335 310.245 279.556H349.915C349.915 276.335 347.304 273.724 344.084 273.724Z" fill="#4A4951"/>
<path d="M169.151 111.884C169.121 111.851 165.723 107.848 160.372 103.825C155.021 99.8107 147.708 95.732 139.761 95.7213C133.264 95.7067 126.411 98.5373 120.264 106.172C114.513 113.297 112.469 122.591 112.469 132.677C112.476 150.24 118.645 170.387 122.923 186.545C125.989 198.1 129.712 210.859 129.707 222.597C129.705 230.203 128.16 237.348 123.931 243.552C119.699 249.753 112.747 255.075 101.733 258.923L102.352 260.696C113.637 256.76 120.987 251.204 125.483 244.611C129.98 238.017 131.588 230.448 131.585 222.597C131.58 210.471 127.789 197.592 124.739 186.064C120.44 169.869 114.341 149.815 114.348 132.677C114.348 122.828 116.352 114.001 121.725 107.352C127.621 100.076 133.812 97.6147 139.761 97.6C147.04 97.5893 154.064 101.425 159.243 105.327C161.832 107.273 163.959 109.224 165.435 110.685C166.172 111.416 166.747 112.024 167.135 112.447C167.329 112.659 167.476 112.824 167.575 112.935L167.719 113.1L169.151 111.884" fill="#2B2930"/>
<path d="M98.8933 256.888L104.311 255.096L107.697 263.181L101.933 265.185L98.8933 256.888" fill="#5A57B0"/>
<path d="M107.697 271.617H33.8823V267.732H107.697V271.617Z" fill="#F3F3F3"/>
<path d="M35.4084 267.732C35.4084 267.732 32.1792 254.349 44.4557 245.532C59.7183 234.572 88.828 242.48 99.0947 254.413C99.0947 254.413 105.893 261.351 105.477 268.843L35.4084 267.732" fill="#443F82"/>
<path d="M54.6453 240.183C54.6453 240.183 45.8161 252.027 63.9047 252.888C81.9933 253.749 103.312 252.888 103.312 252.888C103.312 252.888 80.2707 235.444 54.6453 240.183" fill="#5A57B0"/>
<path d="M60.7864 269.5C60.7864 275.201 56.1651 279.823 50.4645 279.823C44.764 279.823 40.1427 275.201 40.1427 269.5C40.1427 263.8 44.764 259.179 50.4645 259.179C56.1651 259.179 60.7864 263.8 60.7864 269.5Z" fill="#2B2930"/>
<path d="M101.453 272.547C101.453 276.565 98.196 279.823 94.1773 279.823C90.16 279.823 86.9013 276.565 86.9013 272.547C86.9013 268.528 90.16 265.271 94.1773 265.271C98.196 265.271 101.453 268.528 101.453 272.547Z" fill="#2B2930"/>
<path d="M210.719 109.108L188.152 98.3014C184.628 96.7574 183.073 92.6094 184.716 89.1307C186.203 85.9787 189.825 84.4533 193.12 85.5907L216.924 93.904L210.719 109.108" fill="#F59DA1"/>
<path d="M261.333 148.541L263.136 134.777C263.523 129.548 259.797 124.911 254.608 124.161C249.056 123.359 244.396 127.211 243.732 132.781L241.775 148.089L261.333 148.541Z" fill="#F3F3F3"/>
<path d="M217.471 110.952L230.827 97.696L236.821 102.181L255.572 121.791L258.491 123.867L261.236 128.08C261.948 129.171 261.429 130.64 260.191 131.043L255.477 132.572C251.817 137.333 245.824 144.289 238.579 146.523L225.296 162.444C225.296 162.444 190.676 163.76 189.685 139.115L217.471 110.952" fill="#F3F3F3"/>
<path d="M208.477 108.028L220.843 114.335C225.641 116.451 231.259 114.493 233.703 109.855C236.317 104.891 234.248 99.2107 229.221 96.72L215.451 89.7494L208.477 108.028" fill="#F3F3F3"/>
<path d="M216.165 112.508L224.876 116.412L225.26 115.555L216.551 111.651" fill="#D4D2CF"/>
<path d="M191.936 85.9613C187.987 84.944 184.124 87.8773 184.041 91.9533L180.052 123.948L188.128 125.643L196.616 92.9773C197.072 89.7866 195.056 86.764 191.936 85.9613Z" fill="#F59DA1"/>
<path d="M188.889 131.975C188.889 131.975 192.364 131.969 191.475 128.069C190.587 124.171 187.284 119.627 179.805 121.32L188.889 131.975Z" fill="#F59DA1"/>
<path d="M322.609 130.355H414.39V28.9599H322.609V130.355Z" fill="#B5ACDD"/>
<path d="M414.541 130.521H319.365V25.4026H414.541V130.521" fill="white"/>
<path d="M321.063 128.66H412.844V27.2654H321.063V128.66ZM417.484 133.628H316.423V22.296H417.484V133.628Z" fill="#8E80C8"/>
<path d="M401.16 115.94H332.667V38.8094H401.16V115.94" fill="#F9B978"/>
<path d="M360.439 57.044C360.439 62.856 355.727 67.568 349.915 67.568C344.101 67.568 339.389 62.856 339.389 57.044C339.389 51.232 344.101 46.5187 349.915 46.5187C355.727 46.5187 360.439 51.232 360.439 57.044Z" fill="#F13F86"/>
<path d="M396.832 88.5067C396.832 99.4094 387.993 108.248 377.091 108.248C366.188 108.248 357.349 99.4094 357.349 88.5067C357.349 77.604 366.188 68.7654 377.091 68.7654C387.993 68.7654 396.832 77.604 396.832 88.5067" fill="#F13F86"/>
<path d="M385.945 51.7547V61.1974H370.252V51.7547H385.945Z" fill="#F2D6B4"/>
<path d="M153.775 51.9733C153.775 45.6933 148.48 41.6507 141.949 41.6507C135.417 41.6507 130.124 45.6933 130.124 51.9733C130.124 56.0853 132.393 59.688 135.795 61.684H148.104C151.504 59.688 153.775 56.0853 153.775 51.9733" fill="#2B2930"/>
<path d="M174.081 67.7107H49.8907V61.5787H174.081V67.7107Z" fill="#F3F3F3"/>
<path d="M73.3627 61.4133H68.0287C67.3823 61.4133 66.8584 60.888 66.8584 60.2413V23.9373C66.8584 23.2906 67.3823 22.7667 68.0287 22.7667H73.3627C74.0107 22.7667 74.5347 23.2906 74.5347 23.9373V60.2413C74.5347 60.888 74.0107 61.4133 73.3627 61.4133Z" fill="#F13F86"/>
<path d="M82.3227 61.4133H76.988C76.3413 61.4133 75.8173 60.888 75.8173 60.2413V23.9373C75.8173 23.2906 76.3413 22.7667 76.988 22.7667H82.3227C82.9693 22.7667 83.4946 23.2906 83.4946 23.9373V60.2413C83.4946 60.888 82.9693 61.4133 82.3227 61.4133Z" fill="#F13F86"/>
<path d="M91.0973 61.4133H85.7627C85.1147 61.4133 84.5907 60.888 84.5907 60.2413V23.9373C84.5907 23.2906 85.1147 22.7667 85.7627 22.7667H91.0973C91.744 22.7667 92.268 23.2906 92.268 23.9373V60.2413C92.268 60.888 91.744 61.4133 91.0973 61.4133Z" fill="#2B2930"/>
<path d="M116.447 57.3373L111.677 60.3107C111.159 60.6333 110.496 60.4427 110.196 59.8827L93.3827 28.4413C93.084 27.8813 93.2613 27.1653 93.78 26.8413L98.5493 23.8693C99.068 23.5453 99.732 23.7373 100.031 24.2973L116.844 55.7373C117.143 56.2973 116.965 57.0133 116.447 57.3373Z" fill="#F13F86"/>
<path d="M127.087 57.3373L122.317 60.3107C121.799 60.6333 121.135 60.4427 120.835 59.8827L104.023 28.4413C103.723 27.8813 103.901 27.1653 104.42 26.8413L109.189 23.8693C109.708 23.5453 110.371 23.7373 110.671 24.2973L127.483 55.7373C127.783 56.2973 127.605 57.0133 127.087 57.3373Z" fill="#F13F86"/>
<path d="M73.2052 33.1373H68.0812V27.628H73.2052V33.1373Z" fill="white"/>
<path d="M82.2173 58.3227H77.0933V56.908H82.2173V58.3227Z" fill="white"/>
<path d="M82.2173 54.908H77.0933V53.4934H82.2173V54.908Z" fill="white"/>
<path d="M-42 281H459V280H-42V281Z" fill="#8E80C8"/>
<path d="M572.07 159.644H753.342V11.0293H572.07V159.644Z" fill="#B0A1D7"/>
<path d="M572.07 131.66H655.627V11.0293H572.07V131.66Z" fill="#BBAFDE"/>
<path d="M617.928 159.957H605.824L606.015 159.644H618.12L617.928 159.957" fill="#D4CAEA"/>
<path d="M618.12 159.644H606.015L696.552 11.0293H709.022L618.12 159.644Z" fill="#BBAFDE"/>
<path d="M674.212 159.957L674.379 159.644H753.342V11.0294V159.644L674.212 159.957Z" fill="#D4CAEA"/>
<path d="M753.342 159.644H674.379L753.342 11.0293V159.644Z" fill="#BBAFDE"/>
<path d="M662.704 159.957H665.316V11.0294H662.704V159.957Z" fill="white"/>
<path d="M762.188 161.408H558.649V155.336H762.188V161.408Z" fill="#2B2930"/>
<path d="M695.765 3.17736C695.801 3.21336 693.632 41.3147 753.676 96.8454C753.676 96.8454 720.149 159.644 715.727 226.817H763.521V3.17736H695.765Z" fill="#F3F3F3"/>
<path d="M763.521 104.5H752.212C749.997 104.5 748.201 102.704 748.201 100.489C748.201 98.2733 749.997 96.4787 752.212 96.4787H763.521V104.5Z" fill="#F13F86"/>
<path d="M558.649 3.88806H776.139V2.46671H558.649V3.88806Z" fill="#2B2930"/>
<path d="M687.852 123.172C687.666 124.171 684.775 156.38 684.775 156.38L690.667 156.5L699.071 124.333L687.852 123.172" fill="#E39391"/>
<path d="M690.838 156.079L690.318 161.453C690.091 163.801 689.972 165.581 687.97 167.139C685.876 168.767 682.896 169.947 679.496 167.92C672.872 163.975 681.479 161.788 681.479 161.788C681.479 161.788 680.366 157.121 684.95 152.98L690.838 156.079Z" fill="#E39391"/>
<path d="M687.623 124.904L680.743 101.52L695.076 99.5947L699.062 122.793C699.635 126.133 696.547 129.071 692.77 128.776C690.308 128.584 688.248 127.035 687.623 124.904" fill="#E39391"/>
<path d="M689.395 83.6387C689.395 83.6387 698.356 86.9934 699.131 107.028L684.294 108.975L689.395 83.6387" fill="#F13F86"/>
<path d="M678.396 79.5027C678.396 79.5027 689.335 81.7854 690.208 84.8281C691.083 87.8707 684.074 125.984 684.074 125.984L655.539 126.312L649.311 82.0587L658.192 79.7814L678.396 79.5027" fill="#F13F86"/>
<path d="M687.619 108.672L689.25 97.0947L688.262 96.9546L686.631 108.533" fill="#E82975"/>
<path d="M652.347 92.9507C652.347 92.9507 644.265 101.308 653.403 111.128L652.347 92.9507Z" fill="#F13F86"/>
<path d="M619.174 96.316L644.43 86.436L648.242 100.419L622.855 107.403C619.199 108.408 615.568 105.723 615.458 101.933C615.386 99.464 616.872 97.216 619.174 96.316" fill="#E39391"/>
<path d="M649.311 82.0587L632.643 88.704L639.115 108.119L658.192 101.647L649.311 82.0587Z" fill="#F13F86"/>
<path d="M658.032 101.175L649.344 104.121L649.664 105.067L658.354 102.12" fill="#E82975"/>
<path d="M634.982 54.2494C634.982 54.2494 616.155 56.9787 605.47 65.232C594.784 73.484 618.39 87.7026 627.052 80.9453C635.715 74.1866 645.055 57.3707 634.982 54.2494Z" fill="white"/>
<path d="M627.804 99.852C627.916 98.7213 627.402 64.9147 627.402 64.9147L621.514 65.1694L615.458 101.933L627.804 99.852" fill="#E39391"/>
<path d="M621.374 65.6507L621.495 59.6C621.548 56.9574 621.534 54.9573 623.418 53.0813C625.388 51.1213 628.274 49.604 631.816 51.648C638.716 55.628 630.291 58.644 630.291 58.644C630.291 58.644 631.744 63.7947 627.478 68.7321L621.374 65.6507Z" fill="#E39391"/>
<path d="M673.245 67.7L674.547 80.8521L662.049 80.536L661.141 66.92L673.245 67.7" fill="#E39391"/>
<path d="M653.779 47.4787C653.779 47.4787 650.476 52.8601 652.254 62.2827C654.031 71.7054 657.48 72.976 662.716 71.4347L667.658 63.8694L653.779 47.4787" fill="#E39391"/>
<path d="M658.903 59.488C658.903 59.488 656.36 61.0667 655.612 54.9134C655.612 54.9134 649.309 52.2 650.579 45.9427C651.849 39.6853 660.617 39.388 660.617 39.388C660.617 39.388 678.027 34.7534 680.137 49.4134C680.137 49.4134 682.168 58.3973 673.245 67.7L663.563 67.3054L661.38 59.528L658.903 59.488" fill="#3C261F"/>
<path d="M664.53 58.0547C664.587 60.2814 663.164 62.1214 661.352 62.1667C659.539 62.2134 658.024 60.448 657.968 58.2227C657.911 55.9974 659.335 54.156 661.147 54.1107C662.96 54.064 664.474 55.8307 664.53 58.0547Z" fill="#E39391"/>
<path d="M652.933 58.784C652.924 58.8733 651.153 61.5974 650.663 62.7134C650.503 63.0774 650.731 63.4907 651.169 63.6387L653.248 64.3427L652.933 58.784" fill="#E39391"/>
<path d="M673.136 77.708L678.396 79.5027C678.396 79.5027 678.736 82.724 670.159 82.8654C661.581 83.0067 658.192 79.7813 658.192 79.7813L664.212 77.6574L673.136 77.708Z" fill="#E39391"/>
<path d="M679.047 48.0427C679.047 48.0427 673.017 48.5813 672.741 54.4067C672.465 60.2307 677.497 60.572 677.497 60.572L679.047 48.0427" fill="#F13F86"/>
<path d="M674.604 54.0547C674.107 58.8934 677.626 63.2186 682.464 63.7173C687.3 64.216 691.628 60.6974 692.126 55.86C692.624 51.0214 689.106 46.6947 684.267 46.1973C679.428 45.6987 675.103 49.2174 674.604 54.0547Z" fill="#3C261F"/>
<path d="M661.465 71.7533L661.248 68.5254L657.939 71.808C657.939 71.808 659.389 72.216 661.465 71.7533Z" fill="#D27D7D"/>
<path d="M625.386 272.896L629.266 251.163L641.215 252.737L637.048 276.124L625.618 274.096L625.386 272.896" fill="#F59DA1"/>
<path d="M638.715 270.431C638.715 270.431 629.207 274.341 624.742 268.177L601.64 280.069L641.663 279.833L638.715 270.431Z" fill="#23223E"/>
<path d="M690.71 272.896L690.819 251.163L678.87 252.737L679.046 276.124L690.476 274.096L690.71 272.896" fill="#F59DA1"/>
<path d="M677.379 270.431C677.379 270.431 686.887 274.341 691.355 268.177L714.454 280.069L674.432 279.833L677.379 270.431Z" fill="#23223E"/>
<path d="M684.074 125.984C684.074 125.984 695.614 138.531 696.314 161.773C697.015 185.015 694.099 263.021 694.099 263.021L675.176 263.949L674.602 206.733L672.892 156.757H671.206C671.206 156.757 659.866 204.399 658.932 208.603C657.999 212.805 643.523 263.949 643.523 263.949L624.178 262.315L636.079 199.961C636.079 199.961 643.076 165.228 645.002 156.524C649.311 137.045 655.539 126.312 655.539 126.312L684.074 125.984" fill="#443F82"/>
<path d="M664.129 157.661H681.128V156.664H664.129V157.661Z" fill="#3A336B"/>
<path d="M656.152 136.824H655.695C655.695 137.347 655.695 146.093 655.695 146.093V146.391L662.084 149.225L668.878 145.991V136.385L655.695 136.367V136.824H656.152V137.281L667.963 137.299V145.413L662.071 148.219L656.338 145.675L656.152 146.093H656.61C656.61 146.093 656.61 143.907 656.61 141.655C656.61 139.403 656.61 137.085 656.61 136.824H656.152V137.281V136.824Z" fill="#3A336B"/>
<path d="M674.554 136.824H674.096C674.096 137.347 674.096 146.093 674.096 146.093V146.391L680.486 149.225L687.279 145.991V136.385L674.096 136.367V136.824H674.554L674.552 137.281L686.364 137.299V145.413L680.472 148.219L674.739 145.675L674.554 146.093H675.011C675.011 146.093 675.011 143.907 675.011 141.655C675.011 139.403 675.011 137.085 675.011 136.824H674.554L674.552 137.281L674.554 136.824Z" fill="#3A336B"/>
<path d="M328.165 273.937L168.223 109.58L165.529 112.2L325.472 276.557" fill="#2B2930"/>
<path d="M174.784 130.856C173.536 126.836 175.784 122.567 179.805 121.32C183.824 120.072 188.095 122.32 189.341 126.34C190.588 130.36 188.34 134.629 184.321 135.877C180.301 137.124 176.031 134.876 174.784 130.856Z" fill="#F59DA1"/>
<mask id="path-136-inside-1_1_2" fill="white">
<path d="M310.48 269.116C310.061 269.736 309.218 269.898 308.596 269.48C307.976 269.059 307.813 268.216 308.233 267.597C308.652 266.977 309.495 266.813 310.116 267.233C310.737 267.653 310.9 268.497 310.48 269.116"/>
</mask>
<path d="M310.48 269.116C310.061 269.736 309.218 269.898 308.596 269.48C307.976 269.059 307.813 268.216 308.233 267.597C308.652 266.977 309.495 266.813 310.116 267.233C310.737 267.653 310.9 268.497 310.48 269.116" fill="white"/>
<path d="M308.596 269.48L308.428 269.729L308.427 269.728L308.596 269.48ZM308.233 267.597L308.482 267.765L308.481 267.765L308.233 267.597ZM310.729 269.284C310.217 270.043 309.187 270.239 308.428 269.729L308.763 269.231C309.249 269.558 309.906 269.43 310.231 268.948L310.729 269.284ZM308.427 269.728C307.672 269.215 307.471 268.186 307.985 267.429L308.481 267.765C308.155 268.247 308.281 268.904 308.764 269.232L308.427 269.728ZM307.984 267.429C308.496 266.671 309.526 266.472 310.284 266.984L309.948 267.481C309.464 267.154 308.808 267.282 308.482 267.765L307.984 267.429ZM310.284 266.984C311.042 267.497 311.242 268.527 310.728 269.284L310.232 268.948C310.558 268.466 310.432 267.809 309.948 267.481L310.284 266.984Z" fill="black" mask="url(#path-136-inside-1_1_2)"/>
<mask id="path-138-inside-2_1_2" fill="white">
<path d="M1077.48 272.116C1077.06 272.736 1076.22 272.898 1075.6 272.48C1074.98 272.059 1074.81 271.216 1075.23 270.597C1075.65 269.977 1076.5 269.813 1077.12 270.233C1077.74 270.653 1077.9 271.497 1077.48 272.116"/>
</mask>
<path d="M1077.48 272.116C1077.06 272.736 1076.22 272.898 1075.6 272.48C1074.98 272.059 1074.81 271.216 1075.23 270.597C1075.65 269.977 1076.5 269.813 1077.12 270.233C1077.74 270.653 1077.9 271.497 1077.48 272.116" fill="white"/>
<path d="M1075.6 272.48L1075.43 272.729L1075.43 272.728L1075.6 272.48ZM1075.23 270.597L1075.48 270.765L1075.48 270.765L1075.23 270.597ZM1077.73 272.284C1077.22 273.043 1076.19 273.239 1075.43 272.729L1075.76 272.231C1076.25 272.558 1076.91 272.43 1077.23 271.948L1077.73 272.284ZM1075.43 272.728C1074.67 272.215 1074.47 271.186 1074.98 270.429L1075.48 270.765C1075.15 271.247 1075.28 271.904 1075.76 272.232L1075.43 272.728ZM1074.98 270.429C1075.5 269.671 1076.53 269.472 1077.28 269.984L1076.95 270.481C1076.46 270.154 1075.81 270.282 1075.48 270.765L1074.98 270.429ZM1077.28 269.984C1078.04 270.497 1078.24 271.527 1077.73 272.284L1077.23 271.948C1077.56 271.466 1077.43 270.809 1076.95 270.481L1077.28 269.984Z" fill="black" mask="url(#path-138-inside-2_1_2)"/>
<mask id="path-140-inside-3_1_2" fill="white">
<path d="M297.086 259.22C297.24 258.991 297.551 258.931 297.78 259.086C298.009 259.241 298.069 259.551 297.914 259.78C297.76 260.009 297.449 260.069 297.22 259.914C296.991 259.759 296.931 259.448 297.086 259.22"/>
</mask>
<path d="M297.086 259.22C297.24 258.991 297.551 258.931 297.78 259.086C298.009 259.241 298.069 259.551 297.914 259.78C297.76 260.009 297.449 260.069 297.22 259.914C296.991 259.759 296.931 259.448 297.086 259.22" fill="white"/>
<path d="M297.78 259.086L297.836 259.003L297.836 259.003L297.78 259.086ZM297.914 259.78L297.831 259.724L297.831 259.723L297.914 259.78ZM297.22 259.914L297.164 259.997L297.163 259.997L297.22 259.914ZM297.003 259.164C297.188 258.889 297.561 258.818 297.836 259.003L297.724 259.169C297.541 259.045 297.292 259.093 297.169 259.276L297.003 259.164ZM297.836 259.003C298.11 259.189 298.183 259.562 297.997 259.836L297.831 259.723C297.955 259.541 297.907 259.293 297.724 259.168L297.836 259.003ZM297.997 259.835C297.812 260.111 297.439 260.182 297.164 259.997L297.275 259.831C297.459 259.955 297.708 259.907 297.831 259.724L297.997 259.835ZM297.163 259.997C296.89 259.811 296.817 259.438 297.003 259.164L297.169 259.276C297.045 259.458 297.093 259.707 297.276 259.832L297.163 259.997Z" fill="black" mask="url(#path-140-inside-3_1_2)"/>
<g clip-path="url(#clip1_1_2)">
<path d="M332.255 263.999C333.794 263.578 334.8 263.153 335.523 262.43C336.247 261.707 336.672 260.7 337.092 259.161C337.514 260.7 337.94 261.707 338.663 262.43C339.387 263.153 340.393 263.578 341.932 263.999C340.393 264.42 339.387 264.845 338.664 265.569C337.94 266.292 337.515 267.298 337.094 268.838C336.672 267.298 336.247 266.292 335.524 265.569C334.8 264.845 333.794 264.42 332.255 263.999Z" fill="white" stroke="black" stroke-width="0.3"/>
<path d="M337.094 265.862C336.831 265.045 336.575 264.307 335.782 264C336.575 263.693 336.83 262.955 337.094 262.138C337.357 262.955 337.613 263.693 338.405 264C337.613 264.307 337.358 265.045 337.094 265.862Z" fill="#EC78FF" stroke="black" stroke-width="0.1"/>
</g>
<path d="M351.688 262.688C351.844 262.531 352.051 262.432 352.333 262.346C352.051 262.26 351.844 262.161 351.688 262.004C351.531 261.848 351.432 261.641 351.346 261.359C351.26 261.641 351.161 261.848 351.004 262.004C350.848 262.161 350.641 262.26 350.359 262.346C350.641 262.432 350.848 262.531 351.004 262.688C351.161 262.844 351.26 263.051 351.346 263.333C351.432 263.051 351.531 262.844 351.688 262.688Z" fill="white" stroke="black" stroke-width="0.2"/>
<path d="M1083.72 261.723C1083.9 261.546 1084.15 261.443 1084.52 261.346C1084.15 261.249 1083.9 261.146 1083.72 260.969C1083.55 260.792 1083.44 260.545 1083.35 260.174C1083.25 260.545 1083.15 260.792 1082.97 260.969C1082.79 261.146 1082.54 261.249 1082.17 261.346C1082.54 261.443 1082.79 261.546 1082.97 261.723C1083.15 261.9 1083.25 262.147 1083.35 262.518C1083.44 262.147 1083.55 261.9 1083.72 261.723Z" fill="white" stroke="black" stroke-width="0.1"/>
<path d="M287.64 266.668C287.165 266.192 286.507 265.914 285.528 265.654C286.507 265.394 287.165 265.116 287.64 264.64C288.116 264.165 288.394 263.507 288.654 262.528C288.914 263.507 289.192 264.165 289.668 264.64C290.143 265.116 290.801 265.394 291.78 265.654C290.801 265.914 290.143 266.192 289.668 266.668C289.192 267.143 288.914 267.801 288.654 268.78C288.394 267.801 288.116 267.143 287.64 266.668Z" fill="white" stroke="black" stroke-width="0.3"/>
<path d="M1054.64 269.668C1054.16 269.192 1053.51 268.914 1052.53 268.654C1053.51 268.394 1054.16 268.116 1054.64 267.64C1055.12 267.165 1055.39 266.507 1055.65 265.528C1055.91 266.507 1056.19 267.165 1056.67 267.64C1057.14 268.116 1057.8 268.394 1058.78 268.654C1057.8 268.914 1057.14 269.192 1056.67 269.668C1056.19 270.143 1055.91 270.801 1055.65 271.78C1055.39 270.801 1055.12 270.143 1054.64 269.668Z" fill="white" stroke="black" stroke-width="0.3"/>
<path d="M325.027 252.281C324.259 251.513 323.173 251.08 321.49 250.654C323.173 250.228 324.259 249.795 325.027 249.027C325.795 248.259 326.228 247.173 326.654 245.49C327.08 247.173 327.513 248.259 328.281 249.027C329.048 249.795 330.135 250.228 331.818 250.654C330.135 251.08 329.048 251.513 328.281 252.281C327.513 253.048 327.08 254.135 326.654 255.818C326.228 254.135 325.795 253.048 325.027 252.281Z" fill="white" stroke="black" stroke-width="0.3"/>
<path d="M1057.03 251.281C1056.26 250.513 1055.17 250.08 1053.49 249.654C1055.17 249.228 1056.26 248.795 1057.03 248.027C1057.8 247.259 1058.23 246.173 1058.65 244.49C1059.08 246.173 1059.51 247.259 1060.28 248.027C1061.05 248.795 1062.13 249.228 1063.82 249.654C1062.13 250.08 1061.05 250.513 1060.28 251.281C1059.51 252.048 1059.08 253.135 1058.65 254.818C1058.23 253.135 1057.8 252.048 1057.03 251.281Z" fill="white" stroke="black" stroke-width="0.3"/>
<path d="M359.64 268.668C359.165 268.192 358.507 267.914 357.528 267.654C358.507 267.394 359.165 267.116 359.64 266.64C360.116 266.165 360.394 265.507 360.654 264.528C360.914 265.507 361.192 266.165 361.668 266.64C362.143 267.116 362.801 267.394 363.78 267.654C362.801 267.914 362.143 268.192 361.668 268.668C361.192 269.143 360.914 269.801 360.654 270.78C360.394 269.801 360.116 269.143 359.64 268.668Z" fill="white" stroke="black" stroke-width="0.3"/>
<path d="M1091.64 267.668C1091.16 267.192 1090.51 266.914 1089.53 266.654C1090.51 266.394 1091.16 266.116 1091.64 265.64C1092.12 265.165 1092.39 264.507 1092.65 263.528C1092.91 264.507 1093.19 265.165 1093.67 265.64C1094.14 266.116 1094.8 266.394 1095.78 266.654C1094.8 266.914 1094.14 267.192 1093.67 267.668C1093.19 268.143 1092.91 268.801 1092.65 269.78C1092.39 268.801 1092.12 268.143 1091.64 267.668Z" fill="white" stroke="black" stroke-width="0.3"/>
<path d="M934.699 232.985L952.552 219.004L944.488 209.799L926.3 225.329L934.455 233.84L934.699 232.985" fill="#EAA67B"/>
<path d="M930.171 220.713C930.171 220.713 932.225 230.946 939.951 231.245L942.923 257.458L920.567 223.522L930.171 220.713" fill="#242340"/>
<path d="M940.071 259.334L917.715 225.396L920.567 223.522L942.923 257.458L940.071 259.334Z" fill="#F3F3F3"/>
<path d="M955.212 121.389C955.212 121.389 965.351 179.661 964.177 182.327L932.949 211.4L947.287 230.636L980.161 199.232C995.048 187.029 981.687 115.155 981.687 115.155L955.212 121.389" fill="#F13F86"/>
<path d="M969.624 269.16L967.904 246.549L955.771 248.148L958.595 271.894L970.201 269.836L969.624 269.16" fill="#EAA67B"/>
<path d="M956.901 266.115C956.901 266.115 966.557 270.085 971.092 263.827L994.548 275.901L953.908 275.664L956.901 266.115" fill="#242340"/>
<path d="M994.523 279.315L953.885 279.076L953.908 275.664L994.548 275.901L994.523 279.315" fill="#F3F3F3"/>
<path d="M952.135 116.899C952.135 116.899 940.073 133.325 941.648 155.093L950.876 257.518L974.436 256.039L970.275 118.087L952.135 116.899Z" fill="#F13F86"/>
<path d="M973.409 206.064L971.936 161.229L979.26 153.287L978.555 152.636L970.964 160.868L972.449 206.096L973.409 206.064Z" fill="#4145A5"/>
<path d="M945.177 199.615L947.861 229.406L948.817 229.322L946.135 199.528" fill="#4145A5"/>
<path d="M990.077 120.396C987.233 123.619 989.604 128.524 991.932 130.68L1021.45 150.337L1027.32 143.939L999.683 117.352C996.904 115.396 992.327 117.848 990.077 120.396" fill="#F59DA1"/>
<path d="M1021.7 150.997C1018.63 147.712 1018.81 142.561 1022.09 139.497C1025.38 136.432 1030.53 136.611 1033.6 139.896C1036.66 143.181 1036.48 148.332 1033.2 151.396C1029.91 154.461 1024.76 154.283 1021.7 150.997Z" fill="#F59DA1"/>
<path d="M1026.78 253.468H1029.62V127.244H1026.78V253.468Z" fill="#2B2930"/>
<path d="M1011.99 253.722L1017.03 279.636H1048.62L1042.03 253.722H1011.99Z" fill="#F13F86"/>
<path d="M1021.94 279.528L1016.18 254.64L1015.24 254.856L1021.01 279.744" fill="#4145A5"/>
<path d="M1026.66 279.528L1020.9 254.64L1019.96 254.856L1025.73 279.744" fill="#4145A5"/>
<path d="M1031.39 279.528L1025.62 254.64L1024.68 254.856L1030.45 279.744" fill="#4145A5"/>
<path d="M1036.11 279.528L1030.34 254.64L1029.41 254.856L1035.17 279.744" fill="#4145A5"/>
<path d="M1040.83 279.528L1035.06 254.64L1034.13 254.856L1039.89 279.744" fill="#4145A5"/>
<path d="M1045.55 279.528L1039.79 254.64L1038.85 254.856L1044.62 279.744" fill="#4145A5"/>
<path d="M1042.65 250.322H1013.51C1011.75 250.322 1010.33 251.741 1010.33 253.496V257.12H1045.83V253.496C1045.83 251.741 1044.41 250.322 1042.65 250.322" fill="#2B2930"/>
<path d="M1022.79 138.917C1022.79 138.917 1029.11 135.353 1033.15 141.279C1033.15 141.279 1032.92 147.656 1025.21 144.3L1022.79 138.917" fill="#F59DA1"/>
<path d="M998.543 98.0827L1002.85 124.111C1003.65 128.087 1001.79 131.644 997.791 132.329C994.169 132.949 990.661 130.744 989.652 127.211L982.443 101.621L998.543 98.0827Z" fill="#F59DA1"/>
<path d="M1000.55 100.176L997.721 85.884C996.647 80.4586 991.561 76.7906 986.075 77.4853C980.207 78.2266 976.552 83.448 977.44 89.296L980.563 105.2L1000.55 100.176" fill="#443F82"/>
<path d="M972.857 69.4147L951.943 72.6627L944.789 100.599L940.859 143.371L987.44 147.987L995.043 89.2387L993.887 79.6187L981.923 71.5707L972.857 69.4147" fill="#443F82"/>
<path d="M993.889 102.039L995.339 90.84L994.348 90.712L992.9 101.911" fill="#3A336B"/>
<path d="M964.033 148.449L1005.13 267.436L1007.82 266.508L966.717 147.523" fill="#2B2930"/>
<path d="M1003.13 265.063V279.636H1017.03L1014.19 265.063H1003.13Z" fill="#363066"/>
<path d="M994.548 265.063V279.636H1017.03L1016.28 275.763L1005.94 265.063H994.548Z" fill="#443F82"/>
<path d="M955.22 98.36L941.525 120.908C939.537 124.445 935.023 125.643 931.545 123.556C928.393 121.667 927.171 117.707 928.708 114.368L939.917 90.2627L955.22 98.36" fill="#F59DA1"/>
<path d="M953.853 100.599L961.763 88.2826C964.484 83.4706 963.016 77.3733 958.404 74.324C953.469 71.0613 947.293 72.64 944.156 77.6546L936.159 91.7506L953.853 100.599" fill="#443F82"/>
<path d="M954.273 100.868L962.183 88.5534L961.343 88.0134L953.435 100.329" fill="#3A336B"/>
<path d="M930.092 112.885C926.948 115.817 927.36 120.915 930.936 123.301L955.961 151.628L963.745 145.959L941.835 112.709C939.259 110.493 932.576 110.568 930.092 112.885" fill="#F59DA1"/>
<path d="M953.667 156.019C950.6 152.732 950.78 147.584 954.066 144.517C957.351 141.452 962.5 141.631 965.567 144.917C968.631 148.204 968.454 153.352 965.167 156.417C961.88 159.484 956.732 159.304 953.667 156.019Z" fill="#F59DA1"/>
<path d="M967.747 150.545C967.747 150.545 971.085 148.927 968.42 145.589C965.756 142.253 960.469 139.417 954.065 144.517L967.747 150.545Z" fill="#F59DA1"/>
<path d="M989.536 49.072C989.011 51.5974 990.567 54.0667 993.011 54.5867C995.455 55.1067 997.861 53.4814 998.388 50.9547C998.913 48.4294 997.357 45.96 994.913 45.4414C992.469 44.92 990.063 46.5467 989.536 49.072" fill="#E6858F"/>
<path d="M985.051 60.8493L983.508 71.9013C982.972 75.784 980.371 77.532 976.676 76.9773C973.522 76.504 970.265 74.488 970.883 71.0867L974.121 53.8093L985.051 60.8493" fill="#F59DA1"/>
<path d="M983.88 69.4147L973.857 59.5947C973.423 56.28 985.231 59.72 985.231 59.72L983.88 69.4147Z" fill="#E6858F"/>
<path d="M981.284 63.6054C987.593 64.5014 993.519 60.092 994.447 54.7947L996.327 43.704C997.489 37.0654 993.344 30.72 986.959 29.3614C980.423 27.9707 972.839 32.0747 971.433 38.828L970.072 47.4894C968.84 55.2841 973.807 62.0147 981.284 63.6054" fill="#F59DA1"/>
<path d="M987.691 52.528L987.613 54.5213L986.437 54.404C986.232 54.384 986.049 54.5346 986.028 54.74C986.008 54.9453 986.157 55.128 986.364 55.1493L987.933 55.3053L988.216 55.2146L988.344 54.948L988.439 52.5573C988.447 52.3506 988.285 52.1773 988.08 52.168C987.873 52.16 987.699 52.3213 987.691 52.528" fill="#2D2429"/>
<path d="M982.261 45.0293C982.261 45.0293 984.877 45.1693 984.753 46.26C984.753 46.26 984.649 46.996 982.372 46.8293C980.096 46.6613 979.533 46.4093 979.423 45.6893C979.313 44.9693 981.048 44.868 982.261 45.0293Z" fill="#1E1F26"/>
<path d="M992.683 46.536C992.683 46.536 990.58 46.012 990.264 47.008C990.264 47.008 990.067 47.6853 991.914 48.1013C993.762 48.516 994.403 48.3547 994.658 47.8227C994.946 47.2187 993.695 46.692 992.683 46.536" fill="#1E1F26"/>
<path d="M990.531 50.8507C990.425 51.4667 990.824 52.0507 991.42 52.1534C992.016 52.256 992.585 51.84 992.691 51.2254C992.796 50.6094 992.399 50.0254 991.801 49.9227C991.205 49.82 990.637 50.2347 990.531 50.8507Z" fill="#1E1F26"/>
<path d="M981.067 49.2053C980.961 49.8213 981.36 50.4026 981.956 50.5066C982.553 50.6106 983.121 50.1947 983.228 49.5787C983.333 48.9627 982.935 48.38 982.339 48.2773C981.741 48.172 981.173 48.588 981.067 49.2053Z" fill="#1E1F26"/>
<path d="M987.032 56.8507L981.453 55.5867C981.453 55.5867 980.896 57.736 983.751 58.3227C986.607 58.9093 987.032 56.8507 987.032 56.8507" fill="white"/>
<path d="M970.3 38.476L969.885 43.7534L973.207 47.3667L977.928 37.592L970.3 38.476Z" fill="#1E1F26"/>
<path d="M964.363 46.016C963.844 48.5174 965.383 50.9627 967.803 51.4774C970.224 51.9934 972.608 50.3827 973.128 47.8827C973.649 45.3814 972.109 42.9361 969.688 42.4214C967.268 41.9054 964.884 43.516 964.363 46.016Z" fill="#F59DA1"/>
<path d="M970.381 48.4306C970.385 48.4133 970.452 48.0906 970.452 47.6293C970.451 47.1013 970.368 46.3826 969.949 45.7466C969.535 45.108 968.753 44.6093 967.568 44.568C967.361 44.56 967.188 44.72 967.179 44.9266C967.171 45.1333 967.331 45.308 967.537 45.316C968.545 45.3653 969.027 45.7226 969.325 46.16C969.623 46.6026 969.705 47.1826 969.704 47.6293C969.704 47.8226 969.689 47.9893 969.675 48.1053L969.656 48.2386L969.649 48.2786C969.607 48.4813 969.737 48.6786 969.939 48.7213C970.141 48.7626 970.34 48.6333 970.381 48.4306" fill="#2D2429"/>
<path d="M972.857 69.4147L967.344 70.2707C967.344 70.2707 970.385 82.9027 989.435 76.6267L979.953 70.032L972.857 69.4147Z" fill="#F59DA1"/>
<path d="M995.617 48.336L997.511 43.2933L996.04 39.4813L995.617 48.336Z" fill="#1E1F26"/>
<path d="M970.36 41.1293C974.511 40.532 983.253 40.1093 996.912 43.456C998.24 43.7813 999.537 42.828 999.539 41.528L999.543 36.5547C999.544 35.7133 998.999 34.9653 998.167 34.672C994.488 33.3813 983.807 30.2893 970.475 32.348C969.577 32.4867 968.879 33.1733 968.743 34.0253L967.975 38.848C967.764 40.176 968.959 41.3333 970.36 41.1293" fill="#F13F86"/>
<path d="M970.504 35.2813C970.504 35.2813 970.167 23.544 984.032 23.1093C997.897 22.6733 998.583 36.0533 998.583 36.0533L970.504 35.2813Z" fill="#F13F86"/>
<path d="M982.4 41.1693C982.663 39.7346 982.757 38.34 982.757 37.08C982.756 33.9573 982.183 31.6587 982.18 31.6453L981.917 31.7107L982.169 31.8066L985.501 23.0613L985.051 23.124C985.032 23.1267 982.895 23.4186 980.58 24.6373C978.268 25.8533 975.76 28.024 975.112 31.756L975.379 31.8026L975.125 31.7107C975.117 31.7307 974.299 33.9787 974.299 37.2573C974.299 38.34 974.388 39.536 974.628 40.8013L975.159 40.7C974.927 39.4733 974.839 38.3107 974.839 37.2573C974.839 35.6627 975.039 34.3173 975.237 33.3733C975.337 32.9013 975.437 32.5293 975.511 32.276C975.585 32.024 975.632 31.896 975.632 31.8946L975.64 31.8733L975.644 31.8493C976.257 28.328 978.604 26.2933 980.831 25.116C981.944 24.5293 983.021 24.164 983.819 23.9467C984.217 23.8373 984.545 23.7653 984.773 23.72C985.001 23.676 985.123 23.6586 985.124 23.6586L985.087 23.392L984.835 23.2946L981.635 31.6933L981.656 31.776C981.656 31.776 981.689 31.9106 981.741 32.1693C981.899 32.9413 982.216 34.7867 982.216 37.08C982.216 38.3133 982.125 39.676 981.868 41.072L982.4 41.1693" fill="#E82975"/>
<path d="M990.28 42.1094C991.105 40.2614 991.349 38.3387 991.349 36.7027C991.349 34.2707 990.811 32.464 990.807 32.448L990.548 32.5254L990.817 32.5107C990.816 32.4934 990.724 30.8041 989.983 28.7894C989.241 26.7774 987.841 24.424 985.204 23.148L985.087 23.392L985.064 23.66C985.064 23.66 985.189 23.6707 985.429 23.7094C986.271 23.8454 988.439 24.3267 990.689 25.8547C992.94 27.3841 995.279 29.952 996.495 34.308L996.505 34.3467L996.527 34.38L996.561 34.4387C996.731 34.74 997.46 36.1774 997.46 38.6347C997.46 39.9334 997.256 41.5174 996.656 43.3734L997.169 43.54C997.787 41.632 998 39.9894 998 38.6347C998 35.7014 997.003 34.1214 996.983 34.0894L996.755 34.2347L997.015 34.1627C995.591 29.0427 992.613 26.2654 989.999 24.792C987.383 23.3147 985.133 23.1254 985.109 23.1227L983.656 23L984.969 23.6347C987.431 24.824 988.761 27.0374 989.476 28.976C989.832 29.944 990.033 30.8387 990.145 31.4907C990.201 31.8161 990.235 32.08 990.253 32.2627C990.273 32.444 990.277 32.54 990.277 32.54L990.28 32.572L990.289 32.6027C990.289 32.6027 990.32 32.7054 990.368 32.9054C990.515 33.5054 990.809 34.9387 990.809 36.7027C990.809 38.2854 990.572 40.1334 989.787 41.8894L990.28 42.1094" fill="#E82975"/>
<path d="M998.279 34.4267C998.253 34.4147 991.577 31.348 980.233 31.348C977.395 31.348 974.265 31.54 970.875 32.02L970.951 32.5547C974.315 32.0787 977.42 31.888 980.233 31.888C985.856 31.888 990.317 32.648 993.369 33.4067C994.896 33.7867 996.071 34.1654 996.861 34.4494C997.257 34.5907 997.556 34.7094 997.756 34.7907C997.956 34.8734 998.053 34.9174 998.053 34.9174L998.279 34.4267" fill="#E82975"/>
<path d="M849.891 224.724C849.891 224.724 837.464 195.556 825.693 184.413C825.693 184.413 832.259 215.337 841.273 232.381" fill="#3C5C52"/>
<path d="M848.932 224.752C848.932 224.752 867.028 194.327 878.799 183.183C878.799 183.183 868.708 212.951 861.513 231.589" fill="#3C5C52"/>
<path d="M845.187 229.836C845.187 229.836 837.441 194.445 851.615 168.307C851.615 168.307 863.149 182.532 856.652 229.836" fill="#5AB687"/>
<path d="M844.648 225.759C844.648 225.759 840.661 215.375 810.713 205.371C810.713 205.371 814.653 216.633 837.293 229.836" fill="#5AB687"/>
<path d="M858.344 225.124C858.344 225.124 869.167 207.336 891.965 205.371C891.965 205.371 884.228 216.189 866.329 229.836" fill="#5AB687"/>
<path d="M863.583 267.744H838.551V279.336H863.583V267.744Z" fill="#242340"/>
<path d="M825.677 225.757L830.46 265.752C830.864 269.129 832.893 272.096 835.895 273.697C837.401 274.501 839.083 274.922 840.791 274.922H861.083C863.193 274.922 865.256 274.279 866.995 273.079L867.052 273.039C869.521 271.333 871.133 268.646 871.476 265.664L876.063 225.749C876.183 224.685 875.351 223.752 874.281 223.752H827.456C826.383 223.752 825.549 224.691 825.677 225.757Z" fill="#F3F3F3"/>
<path d="M877.672 237.375H823.035V221.793H877.672V237.375Z" fill="#D2D2D2"/>
<path d="M801 280.527H1187.84V279.222H801V280.527Z" fill="#8E80C8"/>
<path d="M1110.5 74.9667C1110.52 86.2773 1101.37 95.464 1090.06 95.4893C1078.75 95.5133 1069.57 86.3667 1069.54 75.0574C1069.52 63.748 1078.66 54.56 1089.97 54.5347C1101.28 54.5093 1110.47 63.6587 1110.5 74.9667" fill="#EDEBEA"/>
<path d="M1089.98 56.4453C1079.89 56.4666 1071.69 64.696 1071.71 74.788C1071.74 84.8813 1079.97 93.0733 1090.06 93.052C1100.15 93.0293 1108.34 84.8 1108.32 74.708C1108.3 64.6146 1100.07 56.4226 1089.98 56.4453" fill="white"/>
<path d="M1089.98 57.724C1080.59 57.744 1072.97 65.3974 1072.99 74.7854C1073.01 84.172 1080.67 91.7934 1090.06 91.7734C1099.44 91.752 1107.06 84.0987 1107.04 74.7107C1107.02 65.324 1099.37 57.7027 1089.98 57.724ZM1090.06 95.4947C1078.62 95.52 1069.3 86.2333 1069.27 74.7933C1069.25 63.3533 1078.53 54.0267 1089.97 54.0027C1101.41 53.976 1110.74 63.2627 1110.76 74.7027C1110.79 86.1427 1101.5 95.4694 1090.06 95.4947" fill="#2B2930"/>
<path d="M1089.66 76.7747C1089.26 76.7747 1088.87 76.556 1088.67 76.1733L1085.25 69.2187C1084.97 68.6733 1085.19 68.0066 1085.73 67.7266C1086.27 67.4466 1086.94 67.66 1087.22 68.204L1090.64 75.16C1090.92 75.704 1090.71 76.3707 1090.16 76.6507C1090 76.7333 1089.83 76.7747 1089.66 76.7747" fill="#F13F86"/>
<path d="M1090.17 76.6387C1089.94 76.7627 1089.64 76.7054 1089.47 76.4894C1089.29 76.2467 1089.33 75.8987 1089.57 75.7121L1100.07 67.0787C1100.31 66.8934 1100.66 66.936 1100.85 67.176C1101.03 67.4187 1100.99 67.7667 1100.75 67.9534L1090.25 76.5867L1090.17 76.6387Z" fill="#F13F86"/>
<g clip-path="url(#clip2_1_2)">
<path d="M613.947 50.9875C615.542 50.5767 615.889 50.2294 616.3 48.6341C616.301 48.6316 616.302 48.6294 616.305 48.6279C616.307 48.6264 616.309 48.6255 616.312 48.6255C616.315 48.6255 616.317 48.6264 616.319 48.6279C616.321 48.6294 616.323 48.6316 616.324 48.6341C616.736 50.2294 617.083 50.5767 618.678 50.9875C618.681 50.9883 618.683 50.9899 618.685 50.992C618.686 50.9942 618.687 50.9967 618.687 50.9994C618.687 51.002 618.686 51.0046 618.685 51.0067C618.683 51.0088 618.681 51.0104 618.678 51.0112C617.083 51.4226 616.736 51.77 616.324 53.3652C616.324 53.3677 616.322 53.3699 616.32 53.3715C616.318 53.373 616.315 53.3738 616.313 53.3738C616.31 53.3738 616.307 53.373 616.305 53.3715C616.303 53.3699 616.301 53.3677 616.301 53.3652C615.889 51.77 615.542 51.4226 613.947 51.0112C613.944 51.0104 613.942 51.0088 613.94 51.0067C613.939 51.0046 613.938 51.002 613.938 50.9994C613.938 50.9967 613.939 50.9942 613.94 50.992C613.942 50.9899 613.944 50.9883 613.947 50.9875Z" fill="white"/>
<path d="M615.695 51.011C616.068 51.1406 616.178 51.4796 616.302 51.8671C616.303 51.8694 616.304 51.8714 616.306 51.8728C616.308 51.8742 616.31 51.8749 616.313 51.8749C616.315 51.8749 616.317 51.8742 616.319 51.8728C616.321 51.8714 616.323 51.8694 616.323 51.8671C616.448 51.4796 616.558 51.1406 616.93 51.011C616.932 51.0101 616.934 51.0086 616.936 51.0067C616.937 51.0047 616.938 51.0024 616.938 51C616.938 50.9976 616.937 50.9953 616.936 50.9933C616.934 50.9913 616.932 50.9898 616.93 50.989C616.558 50.8594 616.448 50.5204 616.323 50.1329C616.323 50.1306 616.321 50.1286 616.319 50.1272C616.317 50.1258 616.315 50.125 616.313 50.125C616.31 50.125 616.308 50.1258 616.306 50.1272C616.304 50.1286 616.303 50.1306 616.302 50.1329C616.177 50.5204 616.068 50.8594 615.695 50.989C615.693 50.9898 615.691 50.9913 615.69 50.9933C615.688 50.9953 615.688 50.9976 615.688 51C615.688 51.0024 615.688 51.0047 615.69 51.0067C615.691 51.0086 615.693 51.0101 615.695 51.011V51.011Z" fill="#EC78FF"/>
</g>
<path d="M622.266 53.4295C621.654 53.2827 621.527 53.1557 621.38 52.5432C621.379 52.5419 621.379 52.5407 621.377 52.5399C621.376 52.5391 621.375 52.5386 621.373 52.5386C621.372 52.5386 621.371 52.5391 621.369 52.5399C621.368 52.5407 621.367 52.5419 621.367 52.5432C621.22 53.1557 621.093 53.2827 620.481 53.4295C620.479 53.43 620.478 53.4309 620.477 53.432C620.477 53.4332 620.476 53.4346 620.476 53.436C620.476 53.4374 620.477 53.4388 620.477 53.44C620.478 53.4411 620.479 53.442 620.481 53.4425C621.093 53.5893 621.22 53.7163 621.367 54.3288C621.367 54.3302 621.368 54.3313 621.369 54.3321C621.371 54.3329 621.372 54.3334 621.373 54.3334C621.375 54.3334 621.376 54.3329 621.377 54.3321C621.379 54.3313 621.379 54.3302 621.38 54.3288C621.527 53.7163 621.654 53.5893 622.266 53.4425C622.268 53.442 622.269 53.4411 622.27 53.44C622.27 53.4388 622.271 53.4374 622.271 53.436C622.271 53.4346 622.27 53.4332 622.27 53.432C622.269 53.4309 622.268 53.43 622.266 53.4295V53.4295Z" fill="white"/>
<path d="M611.95 55.4183C613.613 55.0199 613.958 54.6751 614.356 53.0123C614.357 53.0087 614.36 53.0056 614.363 53.0034C614.366 53.0012 614.37 53 614.374 53C614.377 53 614.381 53.0012 614.384 53.0034C614.388 53.0056 614.39 53.0087 614.391 53.0123C614.79 54.6751 615.134 55.0199 616.797 55.4183C616.801 55.4197 616.804 55.4221 616.806 55.4252C616.808 55.4284 616.81 55.4321 616.81 55.436C616.81 55.4398 616.808 55.4436 616.806 55.4467C616.804 55.4499 616.801 55.4523 616.797 55.4536C615.134 55.852 614.79 56.1968 614.391 57.8596C614.39 57.8632 614.388 57.8663 614.384 57.8686C614.381 57.8708 614.377 57.8719 614.374 57.8719C614.37 57.8719 614.366 57.8708 614.363 57.8686C614.36 57.8663 614.357 57.8632 614.356 57.8596C613.958 56.1968 613.613 55.852 611.95 55.4536C611.946 55.4523 611.943 55.4499 611.941 55.4467C611.939 55.4436 611.938 55.4398 611.938 55.436C611.938 55.4321 611.939 55.4284 611.941 55.4252C611.943 55.4221 611.946 55.4197 611.95 55.4183V55.4183Z" fill="white"/>
<path d="M614.978 86.785C614.805 87.0424 614.455 87.1095 614.197 86.936C613.939 86.7615 613.872 86.4117 614.046 86.1547C614.22 85.8965 614.57 85.8294 614.828 86.0029C615.085 86.1779 615.153 86.5279 614.978 86.785" fill="white"/>
<path d="M605.95 86.3291C607.551 85.9453 607.883 85.6133 608.267 84.0119C608.268 84.0084 608.27 84.0054 608.273 84.0033C608.277 84.0012 608.28 84 608.284 84C608.288 84 608.291 84.0012 608.294 84.0033C608.297 84.0054 608.3 84.0084 608.301 84.0119C608.685 85.6133 609.017 85.9453 610.618 86.3291C610.621 86.3303 610.624 86.3326 610.627 86.3357C610.629 86.3387 610.63 86.3423 610.63 86.346C610.63 86.3498 610.629 86.3534 610.627 86.3564C610.624 86.3594 610.621 86.3618 610.618 86.363C609.017 86.7467 608.685 87.0788 608.301 88.6802C608.3 88.6837 608.297 88.6867 608.294 88.6888C608.291 88.6909 608.288 88.6921 608.284 88.6921C608.28 88.6921 608.277 88.6909 608.273 88.6888C608.27 88.6867 608.268 88.6837 608.267 88.6802C607.883 87.0788 607.551 86.7467 605.95 86.363C605.946 86.3618 605.943 86.3594 605.941 86.3564C605.939 86.3534 605.938 86.3498 605.938 86.346C605.938 86.3423 605.939 86.3387 605.941 86.3357C605.943 86.3326 605.946 86.3303 605.95 86.3291V86.3291Z" fill="white"/>
<path d="M639.726 132.116C639.307 132.736 638.464 132.898 637.841 132.48C637.222 132.059 637.059 131.216 637.479 130.597C637.897 129.976 638.741 129.813 639.361 130.233C639.982 130.653 640.146 131.496 639.726 132.116" fill="white"/>
<path d="M627.264 136.628C629.758 136.03 630.275 135.513 630.873 133.019C630.875 133.013 630.879 133.008 630.883 133.005C630.888 133.002 630.894 133 630.899 133C630.905 133 630.911 133.002 630.916 133.005C630.92 133.008 630.924 133.013 630.926 133.019C631.524 135.513 632.041 136.03 634.535 136.628C634.54 136.63 634.545 136.633 634.548 136.638C634.552 136.643 634.553 136.648 634.553 136.654C634.553 136.66 634.552 136.665 634.548 136.67C634.545 136.675 634.54 136.678 634.535 136.68C632.041 137.278 631.524 137.795 630.926 140.289C630.924 140.295 630.92 140.3 630.916 140.303C630.911 140.306 630.905 140.308 630.899 140.308C630.894 140.308 630.888 140.306 630.883 140.303C630.879 140.3 630.875 140.295 630.873 140.289C630.275 137.795 629.758 137.278 627.264 136.68C627.259 136.678 627.254 136.675 627.251 136.67C627.247 136.665 627.245 136.66 627.245 136.654C627.245 136.648 627.247 136.643 627.251 136.638C627.254 136.633 627.259 136.63 627.264 136.628V136.628Z" fill="white"/>
<path d="M721.956 86.6275C724.45 86.0299 724.968 85.5126 725.565 83.0185C725.567 83.0131 725.571 83.0084 725.575 83.0051C725.58 83.0018 725.586 83 725.592 83C725.597 83 725.603 83.0018 725.608 83.0051C725.613 83.0084 725.616 83.0131 725.618 83.0185C726.216 85.5126 726.733 86.0299 729.227 86.6275C729.233 86.6295 729.237 86.6331 729.241 86.6378C729.244 86.6425 729.246 86.6482 729.246 86.654C729.246 86.6597 729.244 86.6654 729.241 86.6701C729.237 86.6748 729.233 86.6784 729.227 86.6804C726.733 87.278 726.216 87.7953 725.618 90.2894C725.616 90.2948 725.613 90.2995 725.608 90.3028C725.603 90.3061 725.597 90.3079 725.592 90.3079C725.586 90.3079 725.58 90.3061 725.575 90.3028C725.571 90.2995 725.567 90.2948 725.565 90.2894C724.968 87.7953 724.45 87.278 721.956 86.6804C721.951 86.6784 721.946 86.6748 721.943 86.6701C721.939 86.6654 721.938 86.6597 721.938 86.654C721.938 86.6482 721.939 86.6425 721.943 86.6378C721.946 86.6331 721.951 86.6295 721.956 86.6275V86.6275Z" fill="white"/>
</g>
<defs>
<clipPath id="clip0_1_2">
<rect width="1156" height="283" fill="white"/>
</clipPath>
<clipPath id="clip1_1_2">
<rect width="18" height="18" fill="white" transform="translate(343 273) rotate(-180)"/>
</clipPath>
<clipPath id="clip2_1_2">
<rect width="8" height="8" fill="white" transform="translate(618.938 55) rotate(-180)"/>
</clipPath>
</defs>
</svg>
